<mxfile host="app.diagrams.net" modified="2022-08-02T10:19:46.341Z" agent="5.0 (X11)" etag="vkaGp-aPqIReyGAxpWp5" version="20.2.2" type="github">
  <diagram id="peyPZ2cxrnPjJ0nr3hiN" name="Page-1">
    <mxGraphModel dx="1102" dy="613" grid="1" gridSize="10" guides="1" tooltips="1" connect="1" arrows="1" fold="1" page="1" pageScale="1" pageWidth="850" pageHeight="1100" math="0" shadow="0">
      <root>
        <mxCell id="0" />
        <mxCell id="1" parent="0" />
        <mxCell id="k3kbHFxBEWqxozOYYOGE-4" style="edgeStyle=orthogonalEdgeStyle;rounded=0;orthogonalLoop=1;jettySize=auto;html=1;" edge="1" parent="1" source="k3kbHFxBEWqxozOYYOGE-1" target="k3kbHFxBEWqxozOYYOGE-2">
          <mxGeometry relative="1" as="geometry" />
        </mxCell>
        <mxCell id="k3kbHFxBEWqxozOYYOGE-1" value="Original" style="shape=image;verticalLabelPosition=bottom;labelBackgroundColor=default;verticalAlign=top;imageAspect=0;image=data:image/png,iVBORw0KGgoAAAANSUhEUgAAASIAAAC7CAIAAABOwgTeAAAACXBIWXMAAA7EAAAOxAGVKw4bAAAgAElEQVR4nO292a98V3bft6ezzzzUdKff/OP4I7slsmer1aITRW630YYSBIHh2BCih7wF/ZSHvOgPCBIgApIAhp4CQwictmHLieQktqU02y21pubQzSab82+6Y41nns/OwyGLxaq6datOneGSup8n/uoW6+5Td6+91t57re+CjDFwxRVXVMCtW7fy/0DNjuOKK/4mcGVmV1xROegqaLziiqpBaZo2PYYrrviccxU0XnFF5VyZ2RVXVM6VmV1xReVcmdkVV1TOlZldcUXlXJnZFVdUTmlmNraDKL68dwNRnD46ta8uCT+vDCa+68dNj+JcyjGzkRX8T//7K//mzz70w6SUDyyXNGP/4bXD/+Wfv/bzD4ZNj2U5thv+2z+///1///bZ2Gt6LPN4Qfwnf/3wj/70w0u7Trl+/D9//9U/ePk9N7iklkZK+ZR/9m/ffvPD4YMTOwjT33zpCZEv52NLgTH203f7/+JP3nWD+J/8y5/+j9/7NeEyDQ8A8IOfPPrf/uhN148JRvtdpauLCMGmB/UJ94+tP3j5/aO+CyH4wt3uf/uPviRLtOlBfYr/49+//bP3Bw9PbV3hv/2NWxzBTY9onhK82cMT+//9iwe/9fee+62/d+/f/eWD/+fH97f/zLJgjB2eOX/w8vvP3Gr9d7/11ZEV/NGffZhml2hJttzwn/7fb73wdO+//29+9W9/+fpfvnlyqSKCNM3eezTRFfo/fO9b3/sHL777aPzqO/2mB/UpHpxY/+cPP/hH3773D//Os//65ff/+q3Tpke0hG3NLE7Sf/3D9w+68q9/7ea3Xrj27W/c+uFrh9mlmcdJyv6/nzyK4uQ3f+2Je7fbv/lrT7z8yuP7R+blCX7e/GAUJ9k/+E+evnvNeP5u5/6RdaniRi9Mfvre4Pm73YOe8q0Xrt3e1974YHB51qkgTP7FH797c0/9zq/c/tVfPvjqc7v/7N+9k6ZZ0+OaZ1sz++DQfP3d/j/+u8/KAkc5fO92xw+S09FlmShJmv38g+GX7+3e2tMghN/+xm1Npj96/fCSnNZkjL3xwXC/I+91ZADAvdttXaF/+vpR0+P6hNOhNzT9Z262eA4DAL72/N79Y2tiB02P6yNef6//i/uj/+q7z0sCJwncN76wb7vR0cBtelzzbGVmSZr9+c9Pru8oX3t+P3/l9oGmStxf/Py4jLGVwNgKxk5450DPdzuqzH3zlw/ef2wOrUsxUcZW8OGR+bXn9yCEAIC2Jrz49M4PXnl8eQ7NXn710W5bevKGkf/zhWd6jp88PLGbHVVOmmU/eevszjX9l5/q5a/cuaZLAvmLn580O7BFtjIzy42OzpwvP7vLkY8+RxG52/vaj392WczsjQ+GIiU3d9X8nwjCm7uq48fjy2FmD0/skRV85dmd/J8Qwl/55YM4SX/46uNmB5YTxumPXjv6whNdReTyVwxF6Bniw1P7MuwLTDs6G3vP3Wnjj0+MFJG7c6D95efMzMZ2MLKCJ67p01cghPfudN66P7LccOuxlcBr7/R7LaljiPk/IYSazFMOD82w8e1ZlrEPj8y2JhiaMH1xvyM/d6fz8iuPGx8eAODPf3acMfalZ3dyZwsAECh+7k77/ceTy/D37U880wmfvG5MX4EQPn+384sHI9uLGhzYIsXNjDE2tkIAgK7ys6/fu90CAPz8/eZvqKI4/cX94bO3Wgh+cj4ui1xHE06GTpw0vFG2vejBsfX0TUOgnzqAvne7/ejUDi7BeeMbHwy6upjvG3M4gp64bhwP3LHV/Do1MAOMUUsVZl98/m4HMPDWh6OmRrWU4maWMTaY+LLIzd2S7bblG7vqq+82f+z74ZFpefG9O+3ZFxWRu7ajPDyxGz8374/945H3zM025T5lZk/fbEVJ9vC04f0PY+zt++Mnb3xqkYIQ7rYlQtDDU7tZK0szdjryWgovCp+afgddZa8rv34Jpt8sxc0sjNKjgbPTkuYWY4Tg15/be/fR2G/6Sv5n7w1lntw50Gdf5Aja60gDM2jWzBhjA9OHDOy0pdl5DAC4ta9BCB80fcxguVF/4j9xXZ97va0JOy3pg0Oz2WP9MEqOB+5BTxHpp8wMY/TlZ3ffeTi+JIfJOcXNLIjSwzNnryMJdD6p4m99cd90osYnyuvv9p+53Z5bBSCEPUPygtj2mlwFkpSdDl1DEzR5PqNCoPj6jvLgxGpkYFMendlxks3ufHIEituacDxwmz0F8cPkZOhe21F4Op/z8fXndsd2eHjmNDKwpRQ3Mz9MbC/utaTFzKAnrhscQR8cmduNbStMJ3x0Zn/pmU+271O6LVGV6P1Gh5ek2fHQa2u8/PEh3hQI4ZM3jEcndrPXrA+PbYLhzV1l7nUI4U5LHFp+mjU5PD9MgjDp6sLi9HvubidjrNnpN0dxMxvbQZykvY8P8T71oQhe6yknA6/BXfKHR2aSZi883Vv8UUcTeob49oNx/aOaEifZ2djr6IKwsBgDAO7dbptuNLabPM27f2zdOdDJsvzAXktyvMgLmoy6R2aAEWxpwuKPKIdv7WkPTqzGD2mmFDez+0eWJtPuMjMDAOy15ZHlR3FjC95R31UlbqclLf6Icvigp9xvNCpLksxyo7YmLjpbAMCT1/UgTPoTv/6B5URxejRwprfSc/QMkSP4UaOHNO8/nrR1ob3MzAAA13ry0AwanH5zFDez9w/NtiYaCr/0p9d2FNuLG7y+GEz8vY5yXqr7zT11ZAam05i78MLYD5K2tvzba2uiQPGgueTGkRXYbvTUzeVm1jVEkSfvH05qHtUs7x2aOy1JkeZD7pxrPcVpdPrNUdzMHp3aBz0Z4+Xz+FpPtr3IbOgSM0mzgekfdOXz3nB9RyUYvfuosbjxsO/wFLe15bEAxrBriP2J31TYczryvCB5+kZr6U8lgbR18cOjJsOBhyf2fldGy2IBAMBBT2lw+i1S0MwcPxpM/Bu76tKYBwDQ1gTG2KSh3YXtRrYX3/g4x2qRri4IFDc4Ue4fmYrEdfTlMQ9G6PqOejb2g6iZU+njoSuL3OIpaA6E8MaO8mFzhQ6uH1luuNuWzpt+LZUHAJjOZ9ybPTi2CEa77SU7nxzKYYEnptNMroDpRo4f3Vg4JZvCU9zWhQYPzR+eOC1VkITlBaYYwVt76mDiNxL2ZBk7G3m9lojPry69tqP0x43pAjw8tTmCl55/5FAOCzxucFMwR0Eze3hiUw6dtxgDACiHFZGb2GHWhJlZTpgkWUdfHpIBACCE+135wXFjZva47+x35PMWYwjBTltyvMh2GzAzP0wGE/9aT0Ho3OlxfUcBADw6a+YU5MGxTbn5NKtZKIdlgTOd8DKkOIPiZnZqqxJVxHOL1XkOd3RxZIVhE2GP5UaUwzy3qlh9vysf9t1GMhv9MBlO/P3zt44QQkWiDACnCXdhOuHYCm/uqSu82UFXwQjebyjqfnhqKSJVFq4cp1AOd3RhZIaNZ67mFA4a7b2OvEKygnJ4tyUNJl79OU2MMdMJRZ4QsurpDrpKnGT9Jk7zHpxYAIKD3rlmBgAQKEYIOn5cf9Rte5Efxrtt6RxfCwAAssjtd+WmroDvH9n7nSV5EVN4DvVa0sD0L0nKVREzyxh7dGrtd1bNEoJhS+NtLw7Cup8zSrKxHbY0geDVZiYDABqptP3w0KQE77ZXfYE8xapIx1ZQf+qg68cYI4GS82LanLvX9AfHDVwBZ4w9PLX2u+duvAEABKO2JlhuGH52zczxookT7XXPPf8AH1V20ThJ/ahubxaEydAMeoZIzrlsyOkaIiXouAkze//QbOu8es6dT45AiabQwcRP6k25Yoy5QUIwWswVnOPuNWMw8esPa20vMp1o/6Lpp0o0TrLPsDc7GXoAgNXeDACgSDRjwK097AmiZGwHHV3AK70Z5fBeVz4eNuPNcm2SFe+hBGkyHZpBmtb67WWMmW4o8mT1zhYA8MQ1PUqyk9q/wJOBCwDY66zyZgAAReLSjAW1r/JLKWJmuQdY7bUBAJpMZYE7G3s1hxV+mAZRoiv8hVqHdw60o37dedxBlBwP3dv78wUmcyAEDYU33bBmbxbH2dgMDYXnFwov5ri1pyYpOxvXnRF22HcAuGBnCwDQJCrypMGEtVkKmpkm0/PuLqcoEqcr9Kjv1ry7CKIkTZkicqvdBQDg1p42mNS9Sx5bYZxm1y6aJRBCTeFdP67bzJJsZAWGyi/NaZ5FFDhV5EZm3fP4ZOgZKq9eJMmqSFST6VH/UqhcFQsa3RUJFlMkntMV/nTk1nl1lh8zIgSVNZRxb+1pUZKN65VDG1o+y8CKm/0pukyDKKl5FYiSdOIEmkK5lee0OV1DHJp1ixcdD9yba0w/WSC6zNcfrSxlYzPLMnY69m7uXfycCMGOJoytWq8Is4ydDj1NpqsPGHJu7atxnI7qVbkamQFCoLusdGAOTaYE45rncZxkYZRqEr0wFgAA9FriyArq3HunWXY68m7taRe+E2PU1oVLoi27sZk5fmQ64e39i58TANDSBMuNshrr/zLGjgaurvDreLOuLhKCRvXO48EkaGnChQcMAABd4UWeHNa7HkdxFkSpetGOIGe3LVluVGfipeVGthfdOVhr+nV1of6t41I2NrORGcRxdmsNbwYA0BUaJWmd9X9Zxgamb6g8XSPmyXWRRlatmW8jy99bI2IEAGgyFXlS882e68cZYysSLGbZ7ch+mNSZeDk0gzjJbu2vNf0MlffDxGtakwYUMTMriJLs5hpeGwCgyTwl+HRU34qSMeB4sS7z68Q8AICuIdS5N2OMjcxg96K7kBzK4ZbKn9WrlN6f+BJPLjxgyNlrS0GY1pl4OTT9KE5v7q47/TCCl0FqfmMzG5iByOM1/wyaTCmHTob1hT1Zxmwv0pV1OwPttiXTCWu7XfHDxAniC68cp3R0sebdxcnIlQTuvHLJOTq6ECepVauZBapE12ydpcmUI+gyaO9sbGbDib8i830OTaYCrTXscf0oilP9nJruRQ66iuVGtaUyWG4UhOmFdz5Tei2x5kSQ06GnSlQW1jIzymFRIHWa2WDin6eLsYgmU8rhmje3S9nMzLKMDa1gfTPjCNIVvk6vfTr2KcEX3ulN2WlLjh/Xtnu03MgPk/W9WVcX4iSrU/F/aPqGyq9OoJmCMZIErjYzS7NsbIdd49z6lzk4ggyFXoYGMZuZmR8mthvtttc1Mwhh1xDq3F2cDF3KbWBmmkzjOPPrMjPbizLGVtQjztE1RIJRnevx2ArP07FZhCAoCyR/qEpHleMHievH63szCGHXkI4HnzVv5vqxFyZL5aLOo6OLtXqzoUc5tL6ZcQQjDGur1rHdSOIJOb9cco6uIWKMDs9qWo/TNJs4wXlCQIvkd1O2F8W1aEh5QeIHSXftYAoA0GtJx4PP2hFIHl/1Wps8pyG6fuzUdeZ7PHRbmrB+92GOIIJgPWe+jDHTjSSBwLW/dZEnhkIf11WkfNh3MEbrbwoIhl1dNJ0orOUMyfFjL4w3mn47LXHihI2f6W9mZl4QJ2m2vq8AAHQMAdZ4qNofeyukExbhCOII8oI6yggyxmw3UiR6nh7TIhDC/a5SW9D4+NShBK0fNGKEWppge1E9ZV1uEKcbTr9crnfQdALxhkFjEHME0TUyGKZ0dBFBWM/2jDF2OvY656iyLYXDSBap5UZJ9fUmYZRaXtTWhPXNDACw15GOB049CU2PzmzK4blOWiuAEKgSjeO0HjPz/JgjeKPpl7u+ftO5IBt6Mz/mObS6KnmOlioQDE9rufzxgtj1kvVPogAAhCBNphMnqkE0Ij9AamsCPL+6fpGdlmh7cT27x8OB01KFdRJociCEedut2rwZz+F1cpqndHQRAtB4OcwGI2aMOX5MN3xOjqBeSzyp5VD1bOQDCDYyM44gXaYTO0zSyidKECaWG3V0YRMrA72WlDJWj57+8cDtGsKaCTQ5Ik8YAGGUVu1vGWOOF1OKObyBN6Mc7rbqvuJfZAODSTNme7EmrVUiMct+R6nHm52NPQRhe5OTKIygIlHbq0MCyY/SJM3WKYSbZaclsQzUkN/MGDsdeeuff+QIPOY5XMPVWZxkthdpMl2tpLTIQVf+LAWNcZJZbqSr/EZBIwBgryP1x34N5TCnY49g2Fo7BQR8JNXGhXFWg5nlfW7XTBSa0tYFAEAN1TpRnJp2uKmZiZSoMh1M/KqvzqI4tdxIV/hNV/mDrjxoTiY9Z4MRJ0lmF3rOvY7sBnXsLs5GXksTNtoiAwAkgYvitOqEJsaYHyYQgMWui6uReCKLZFR9fvPECTMGupuc0wIABJ5ouZlVvExFSWa5kaFsvMrvdxXbi5ptzrqZN/vIa2/4nAc9OUlZDRlDp0NvhZTveSgiFyeVn5VlDJhOyFMibujNIIS9ljSsXgsgrx9dP8cih+ewKtGRWXlxZxinrh9rMl0tWLbI9Z4SJdmkUaHvTcwszZI0k4XNthYAgL2OnKZZ1W0r8tP8vc4GGSo5skg4gqseXpplEztUJe5CjY1FeoY4NivvRpDHpRvdOgIAEIKKyNl+XEPQGCeZtPn02+/JSZKZjfZk3CxoTFK26WIMAOhoAkZwXPFykjfp3Vs7K3eKLHAST6q+wcxSNnFCWeQu1D9cpGeIk+rl4EdWKPFksUnvhSgi5/pR1XufKE4zVmT67RhSVtdR7XlsYGZRkmaMiec0MVkBxshQ+ardxdgO0zQr4M0kkRMFMphUG9OmGTOdSBa5deQJ5thpS0GUVt1+ZWwFu51zWxmtQJY4x08qXQUYY2GUZhk7r4fOCijFssh9ZoJG240IRtLmywkAoGtIVRcpj8wgzdiK/g/nIVIiC9yg4s1PmmWOHysSXaH8fh57HSk/Z6tiYFOG5qruGStQRBonaaV5gwwA0404UnD6tVR+XK8UxRwbmNnQDGSBK+C1AQBtTbDcqNLdxcgOMsZ6xsbeDEKgK/yk4lUgTZkfJptemuXstKUoTq0q068zxsZWWCAWAAAoIscRVKkCF8vYyApkkSsQTAEADEWYOLUqcM2xgZkNJr4skmLP2dF5L4grPc0bW4Eu001P8wEAEEJdoVW3nMuFpteUspmjpQhZxiqV3PCDxI+S1d0zzkMWOUpwpdnhGdtuldcF10+i5powbeTNfFngNr32yekakh+mlVZP5l1giv2/hsqbblzp7iKK0yhOCxwwAAAwhrLIWV6FUZnlRnGc7hUyM0XkKIfOJhWaGWNsbAWSWHD6tTXeDxOvod6iYCMzG9mBuvmlWU7PEP0wcSsL3/M+1+tXcMxhKHyaVnu1MrICjuA1pWzmQBAqErWqbFhuuWEYZ6vbrJwHT7EscJUWYWSMWW6ky0V2tgCAri4GYVKnkOEcG9jMxInWVMlcpKMLYVThcyZp5nhRYTPTFZ5gVGlzk/7E5zlcLGiEECoiZ1e5ubW9OM1WtRFeAYSwpQmV3ogwBhwv2qjSbJa2JvhRk4KNG5iZ5YSFnzMPqaszMy9IgijtFZolAABD4bmKe50NzICnuFjQiBBoqdSpsm2F7UYCTzZNo5tiqHylR7VZxmy/+CoviRwEwGsu32rdr9WPEi9ItPXkGRfBGFGC/cqWE9ePwzjtbFICM0su6FdpGcFw7IkUS3xBb9bSBC+Iq5PRtrxILXQKmtPWhMGkwqM814/SlBVe5TmMOII/A0HjycDlCNLWlhmdAyPIccit7DkdPw6jdNN8vCn5BfrpsEozswJDFYptLRCEHV10/bgiyQ3GmOVGxfaNOW1NqPRm73TkUQ4XXuXJx1IU5Y5qfdY2s6FHCCruzRDkKXErk9xw/TjL2PoqqIt0NKHSI+mxHRYeHoS5HHxakTdLUuZ4kSYX//bamgAhrG571p/4lKB12o8shWDIU1zd9LuQdc3sdOQSXPw5MUKKyLl+XFFZl+PHPEWFtxYAgJZWrZ7k2AqMtTU2FpEELk84KnFIU4IocYO48AESAKCl8ahSMxv7hc9pAQAc/mj61dyTccq687I/9iWeFMgu/+jXYKjL1Paqktxw/VigXLGQLKetCUPTT6v5M/hh7IWJoRZcpCCElEMIwYq8mR8mXpAUvnUEALRUAUJQ3SnIYOIr4sXtsM8jV3yxvTiqRU9ykbWDxpHX0TdTiZgFI6irvOVGVfSeZIw5fiTyGK8tM7pI1xAyBirK4+6PfQShoRSfx5TDGMMgSqoIe/Kr284WZvZx85oKg0ZDLT79CEaawltuFCW1tj6dsrY3G3nbBBUYQVWirh9XkfCSZcz1Y1nk8FbeTASVaQGcjT2MYGuLoJESTAmuKI3GD5IkzWSxSILFlF5Lqs6bDc1gG2dLMNIk6vpxPerIi6xlZoyxs4m/zXNCCCWBxElWhTeLksz1E0Pl8YZ1tbPki0hFyjb9sY8x2uaEhhKkiJzpRmkFGWFBlCCMKLeVme20pEE1yjZZxkamv80iBSGQBRLFyaX2Zl6QuNsFFQAAkZI0y+IKnjNOUsePdYXfxpvpCkUIVubNfEnYWJ5gFo5DisSZbliFmflhShBcX55xKTstcWyHVZwxeEEcxOk2B0gQQoEnaQYu9d4sn3ztDcvX5xB4kqasiueM4sz145bKb7M3Ixi1daEiyY3TkdfTxW1OaCjBqsRP7DArWx2ZMeaHMUKbiUkvstuWompaCo6sAEK4zZ4FACDyJE0rWeXXYa15Of5IJaLg5W9Ovpb7Yfmb+ChJwygv5Sr+IRDCXUOqqA/12djrtLaaJRxBikgsJ0rLVpDKMub6iSQUz7TK2WlJacqqkNwYmgGCcBtvBgAQeJIxFoSVy7YuZa1vdmgFAIBtgmMAgMBjgSemE5b+mHGcAQB5SgqfROXstMWhVb6gX5ax4cTv6UWS36dACCWR88O49KAxTjPLjfJilm0+p9cS06ySKoexFSAIjC12tgAAkSciT0y3/Om3DusGjRKPpfUapZ6HSIkkkLFdvkJTlKQAssKXKlN227LllN+zwgtiL9xM2X8pEk+CKC3dzJKUWW6oSnT9blVLMVQBQViF4svQCiSxYEHnFJFiSeCqmH7rsJ6ZmUGvLW2ztQAAiAKRBW5kBeXOE8ZYfnpZQDFqjt22FMap65e8uxhZQZax7ubqCXNIAheESflmlmSWG6nStt6M+6jpR/lmNjKDnVYRLaBZRJ5IAhmXPf3WZF1vtlGHzqXwHJYEbmKXn8dtezHl8PZmttMWkzQrfRM/sUPGNmugsRRJIFGSRXHJV2dJmnlBIoncRu2glmKoQhVaDyMr6G23swUA8JRIPBlbzSiCXGxmjLFSzAxCqOZKY6U+Z8bAxA4VgQrbXfsAAHZbcr60lzKwKWM7ZIBt1EBjKSJPeA6PzJLncZJmcZIWkBldpKXyplNy7Wk+/QooKc2B8p4k1cu2Lv/tF74jF1XeWbut+wryRJByH5MxNrYDWSTbe7O2zudCZaUMbMrEDkWeE7ceniRwlOLSMy2SJIuSrJgw2xwtjbe9ki/Q/TDxwqRwidMsmlz+9FuTi83McqIkzYqJscyhytTxo6zUI+ksY2MrkKUiar5zcATLArHKDnvGdtDbsGnYUiSBCBwuPQs+StIkSQvIjC7S0cWgbC0Ay42SJNttb+vNwMer/CX1ZpYbxkm2U85zcnGS+WGZV4SMAcuNle0SGqdoMl+6HOJ4825GSxEoEXhSejqY48UYI3G7Y+Scri6Ecer6Ze4eLTdK0qxXhjdTJC6M04qKiVazhpl5UZKyUsxMETmCUbkJTXl6vrxFgf0smkzLlUPMlc827f+wlLzRc+kX6CMrECgpJWjs6GJYtgh5bmalBI2qRHHZ029N1vFmEcZQLaQVM4ciUUpwv1TJjYwx109koWAp1xyaQm23zLA2jNMgSktZjCGEhkInTsmzZGQFAk9KCRoNjU/SrFyZQMuNKLftnW2OInGUoIrym1ez1t5Ml2kpvkKVKOVQuf2204x5QVxMmG2Rji56YVJiWOv4cRSnva3PaXMMlS/9SHpoBiLFW17+5lCCKYfL9WamW1xPbQ5VopTgRvpQr+XNynrOPOGl3OXE9iLGwJa1UlPamhBEaVCesk1eYtdrleDNAAC6wrtBUm4xUd4OasuExhyMoEBJuWZmu1uJlMwiCUTgyz+qXYcLvlzGmOmGaknPiRDUFH5Q6ia+P/Y5DhXTP1ykrQlBmATleTPPT+KkuOTWHLrCMwbKTWjKl9FSohWEoEBxiUEjY8xySlvlMUJ5/95SPm0jLjCzOMm8INkyaXgWQ+XLLTYZTHxKUCmxOwDAUPgoTv0yvVmEEZRLGp6uUIxhv1S1+hKjFYyhxBPHL60bQRinXhiXOP1aqlBp55rzuMDMvCDxw2TLUp9Z2io/MMvMgu+PPVpUNHsRnmJCUFCePK0TxPJ2FTqzGCqPETwrL+rOMmZvJx03C0ZIVwXXj8sKa70g8cO0lOuQnJbK9yflF2FcyAVmljGmiNy1nlLW7zNUwXZL+zMAAAaToKytBQCAYMgRVKo3S2ShhHTBHEWklMP98szM9rZS850DI2go1PWTsjps+WESRElbK9ObWW5V8moruGB2qhL9+9+6e+92u6zflwcAJQpIDU3fUPhSthYAAIIR5XBZezPGmOvHssTBMq7OAQAEI13hS9xdnI09jqDC2vRzYAR1hXeDuKwrYC9IgjBpqaUFU4bKMwaq7mW3yAVmxhH01I1WWX8GAICh8uUK+g22E2OZg2AkUOIF5aTkJClzg1iT+ZKsDAAAurpQ4o3I2cgnGBYWk54DIahKnF9ev8g8b6uUO70cQ+URBFX3Z16knFhrfdqagCAcltRPnTE22E5yaw5CkCpR24tKkY7JUyLaamnOFgDQNcQS1ZHPxh7BSC/aGmEOCKEocFl56shekHAc5rYu2J3S0gQIYf2nIHWbmSpxhKCywh7Xj6M4KzGoIBhpMrWcKCkjfI/ixPVjo1Qz619AcnUAABquSURBVOjC2AnL2l2cjjxJ5LYU25mF5zBgoLy9WUwxIlvoAs6hyZRgWJHiywrqNjOEUEcXhiXllQ0mAUTbirHMwuVm5pYjVRDEqRvEhlJu0CimKSurc+fZ2OtoJVQPTOEpBrAcM2OMeUFCKS7WIHYpBKOWJtSf1li3mQEAeoZY1tXZ0PQR3FYLaBaM89rTcnoaRFEaxWlZlw05HUNkjI1LWo/PRl6JITcAgOcwQqgU/bI0ZY4fywIp0cwAAD1D/BthZjstqaygsT/xIdxKNHuOfHcRRGkpQWMQpwAASnGJ7qJnCBljpWziGWOnI69bRvXAFJ5iiSeWG21/Qx0laZ5pRUq6rcnpGeKo9nyrBsys+5E8bQlxxdDyZYGUUis1RaQ4jtO4JG8GAKTbKUbN0dJECGEpNyKOHwdRWmLuAQCA57AscpZTgjpylGSOH2sK5cr1Zi1pbIfl1hZfSBNmZohZxiynhMy34SQoK11wisCTKC3BmzHGgigFDJR1dZ6DEWyr/LiMsGf8kZh0mV8gz2FJIJMyzCyOU8eLNYmWGzR2W2KSZLZXa+fOZvZmacrMMjbxQ7MEMZY5BEpYBrZP0mcMuEFMOVTieXROxxBL8Wb5QVSJORYAgDzxzSqjpUaUZEGUSEJpqWo5PaMS/bLVNLM3S7Ns+zTz/NKsrBqTKSKPeYq3n8dpxkwnlEVuyxYQi/QMsRRvNpz4AIBSKrunIARlkXP9ePuGjFGcZhkT+W3FpOfYMcS4vKPaNWnAzAyVBwBun/Dih4kfJqWbmcATgSfbH0blS4lc6q1UTlcXcyGaLT9nZIWqxAm0tByLHFnkgjDZ/ggkTrI0YwJf8rfX1oU0+xvgzQhGmkInWy8nphOlWdYtdWsBcmUbirc3syxjphMpFXizbkuIktTZuqxrZPo77W3VfBdRROpvLUKei0mnGSt9FeAIlnny+TczAEBL4S172+e03DDNWOnejKdY5Mn2UVmaMtuLJHGrjthL6RlSFGfO1gpcQyvYKXtnCwCQRRLH6fZtsm0vohwqRT1hjrxBbukfu4KGzEzjtxdbn9hhmrHSj0AQhLrMm862f4Y0y/wwUUuS3JplpyVFcbqlAleWsbEV7nXKN7O8WmdkbXU3lTE2skJZ2LZDxVJ0mf6NMLO2JthetOUueeJElMNlyRPMopbxZ0gz5oeJXFLy+yx5NceWR9JBlPhhUoou4ByKyPF0W9lWluVqzUTYWuV2EU3J1ZHruzprxsy6uuiH22oBWG5oKLT0kAwAoMl0+5OoJMny5oalDGkWjiCBx/Z2nWtsL07SclRu55BFjt9aHTnPdJEEIlTgzVoq74dJnbqoDZmZIYZR4m0nTzuxw22apq9Ak6gbJFtmwZtehBCqwswghIrIOdt5M8eL4rQc0ew5JIEIlGxZbMIYsL1IFrly76ZzOpoYhKkXlNxbZwXNmFmvJYVRuo0EEmNs4pQjmr1InuCzZVlXf+zztJKYFkGoiNRyt+q9YrlRmrKyBCRngRAaGr+lmWWMOV6sVhByAwA6huCFcblCd6tpxsx0haaMbbOc5H1qyk17naLJlGxtZsOJz5enBTQLhECVOdffqkGu48U8xdv3qVmKofCT7ZKbGWNuEKtS+d8eAMBQ+TjOym2psZpmzIwjiOfwNs/p+nEYlaZ/OIcmU0LglvK0A9MXaDmq1HMgCA2F97aT3LC9SJPKkWdcRFf4LdvPpinzg0SpxpsJlGAMP/9BI0ZQ5Mk2z2l7cRCVJpo9hyxylODTLb2ZGagyLbHydwqEoKUJubZf4Q+x/VgrSZtgEUPl/TDZ5urM8kIGQEVmRjCipEzZ1gtpysyQyBPXjwsveI4fhXHS27rT7FIwQh1dOB6523zI2ApapcoTTIEItjTeC+LCZsYYs93IqOYACQDQUngI4TbCSv2xTwnSqgkaCUGUw15QQu3pmjRkZh8XKRfeXbheTDAS+Er+DACAti6eDoubGWNsZFV1EAoB0CQaxsW1/sM49YLYKDU3fxZd5TGCwy30JE9HHuVwRUcgHEYiTxwvqq2lYDNmhhA0VMH2igtTOn4s8qSU1oFL6erCydAr/GeIk8z2qnIXEELKEQRhYXXkIEy8MOmUWtA5i5GLkG/hzc5GHk+xUpU3g7pCbS+O4ppuqBsLGg2Vt72osPxw1WbWMUTHi/2iu8eJHTIGStQCmoNyCGPoF938+GHqBXFbq+QACQAg8pwkcNvcUJ+NfV0uuaBzCoeRrvDWFtNvUxoLGg2Vt9yCz5krv8sCh6v5MwAAeobIACgsDXQ69jCGRnnKdnNQDmOECu/N/DDxgzJFs+dACHY1cRvZ1rOx19HLlNyahRCky9R2o6gule+GgkYIZYELo7TYc+aXZrrCVxk0igCAwj2iBmMvF5QvdVCfQAniKfaK9l7JN3VVZOVO6bSEYVEzY4z1xyVLbs2CEVIk6kcld4pbQTNmBgDgKc4yVuw5wyh1vLilVmhmbV2AEBQOe07HPiWooh08AIDjsCpR0wmLSQP5YYIwrCgky+nq4tAMim1uozi13KhdTe5BjsiTLGXx597MBA6nGSu2Bw2ixPFjXeVxBbdSOQLFmkwLZwydjb2WJlQX0/Ic0mRqFlVHDsIEQ1iuMNscPUNwg6TYIc3A9AGA1Z3QAAAEHqdZ9jkPGgEAPCWMsSAqcncRRmkQJppMy2potAiEcL8rD4omgpyNvNLrTWehBGsyLabynWXM8WOe4nIlt+boGlKaFlR8ORt5EIGKElZzRJ5kDARlyLauQ3PejGKeYtMJCzxmEKWMlS/GMsdeRyq8N+uP/V6VswQhqErUC+I42TjsSdJs4oSqVLL+4RxdQ0gzVszM+mMfQViugOQcIk94DltuVM/NWZN7M0ngxlZQxJvFCYCArybtdcpeRx7bQQGV7yhOJ07YqdKbQQhlkYuiIrKtcZKZTqTJtNKgMVfjLFYjfzbxZZGrIh10isgTSeBGhaZfAZozMw5LAhnZ4aZHZYyxvM0fX7Zi1Bz7HTlOsgJaAPmlWelaQHPIIhclWYGgMU4z0w41ma/Um4k8J/K4mJkNxl4VhXCziDyRBDK2g5K6ZF9AY2aW62YW82a2F/EcKV3zaI79rhwnWYGJMrSCjLGdKr0ZAEAROcaYt3nRVJJkjh+rUiWF57O09YJNIU7HftVmxlOsiNzI2qqMYH0aMzOEoCJRx9+4L2bG2MQJFYmrQiVilr2OnKRZAT3JkemzCrSA5pDzIuXN53GcZFGcymK1O1uQt2LbfHhpmg3NYK9iM0MQKhJn15XW2JiZAQA0iTpevOlj5mIssshVvTfTFR6hIrKtg4kviaSifLwpksiJPClwsxcnaRinVZR1z9EzxMnmVw6OH0dxWoVIySwQQlWijvd5PwIBACgS5/obd+j5yJuJXNV7MwRhfje16f84mAQ7rfJlRueQBU4UiphZEKVpmslVHjDk7LblIEycDaWBTCdMM1Z10AgA0GTq+iWoI69Dk2amy3yUbFwrzj5Wiaju8neKoWysJ8kY60+8/a5c0ZCmcASpUpEL9MHEFwWuamcLANjrSH6YbCrFN3HCNM32OpV/gapMwzjdpjR2fRoNGhVKCT4ZbnYFnDEQhHEVGhuLGCpvOZuF7/lx+V678lkCITRUvkBM25/4Ek/qCBpbYhinm+pJmk6EEaqoVG8WTaKUQ/3tpCjWpEkzMxSep/ho4Gz0fzHG/DCVq1+MAQBtVXA3lNywvSiI0irUfBcp4GzBR96M1BA0ygKHEdz0RsR0Ql2tqgRmFk3OV/mtauTXpEkzU2XKU3w82Ow5gzCJkkyrLCt3lq4h+mGyUVhrOmEYpzUEjQAAXaWuH2+afj2yAlWilWZa5RCMZIGzN9T6N52o0mzGKdpHq/zn3cwIRl1d3PQ5jwauQLEmVx5UAAC6LdELko0E/SZOGCdpDVsLAEBLETBGmypwja3QqEakZA6MkSiQjfQkK5XfnIPncFsTjvqfdzMDAHQNcVOvfdR3RJ5och3ezFD4KE7dTWqoTSfiKam0lGuKrvIcRht9gYyxiRNUJ7YzC8ZQk6nlRUm6rpmFcer6UacaXcBFCky/YjRsZj1D7E/8jfIGjwauJJB6jkByHYSNvJnpVKh/OIehUI6gjc6Qwjj1gqQeMyMItTXB8aL1pYG8IPGDpFeXmfVa4unY275/74U07c1aYhSnG+UKHA/dlipUV2k2C0cQT/H6ncQYY5YTqjJXXYXOLAIlqkQ30pPMk991tY5YAGPY1gTLjdevOnP82AuTeg6QAAA9Q/TDZPvGsRfSsJnttCQE4fEmjvuo7/ZaYj3ughIk8BvsLuIks7yorQmolu8VQtg1xI3OkA77DkdQqzKRklkwgh97s3UPaWw3CsKk6jy1KR9Nv+pPQZr2ZrqAEFw/7EnT7Gzk1nMSBQDgONxS+cna1ZNeELt+3NFrWgVAHvaMvPXPGI4HDkfquJUCAEAIJYFkjK1/BWx7EeUw5Wqall1DQgiebKd7uw4Nm5kscqpE1xceHZh+koFOlSoRs1CC2ro4ttc3s8Tx4q4u1BM0glxywwrWL4c5HniKRKvOup4iUAI/Vvi5kFwLmae4hkuzHFXiZIGcfO69GYTwoCuv781Ohh6CoLaTKI7gtsqbdhitV6TsBUkQJS1NqMvKQK8lJptU6xwP3Z5Rn7MVeAwh9NeT0c4yZrlV9TRbCkJwvytvtGcp+Iuq/gUXcq2nHK+dCHLUdzGCVVdMToEQaDIfREm8njSQG8QQgqrVE2bZ68hZxtYPBx6f2ZWKlMwh8kTkycQN10lYC+N0bAcdTaiiv8d5XO+pn/+9GQBgvytPnGjNw6jjodPS+KpLYKbkWgBJmq3vzTBGVZcOzLLblgAEJ+sdNnpBPJgEB12l6lFNyc9Cx2aQrnF1Fkbp2A7bulhDUviU/Z48tsOqG+Q2b2YHXTlJszXLE0+G3kFXqc1XAABkkWQMrPNnYIx5QUwwonWtAgAAyuHdlrRm1J0n3Bx0azrHA7mZyXRkhetcjQZRarlRpfKbi1zrKUmSjbdrenghzZvZfk9JM7aOjHaWsZOhe9CrbzEGeVkXT9bpIZRlzHQiVaJ1ejMAwPUd5XTorrP5yYPz/Rq9GeWQKnETJ1znCjiMkzjJFJGrcxk96MppxgpUeW9E82a20xIhhOuUJ7p+bLvR9Z1azUyROE2ix2tkviUpG9uBofA1m9nNPXVoBuskED8+c3SF1nOanwMh1BTq+FF6kTfLlZTSNKuhEG6WnZYEISig9bARzZsZR7ChrtURfGj5Scbq3FoAACSeUyS6zuYnzbKRFWhK3d7sxq7qhck6iojHA/fWnla10s4chsI7XrzOlYPtRQjBGip0ZuE4bKj859+bAQB6hjBax8wmQZpm13p1JL9PwRgaKl3H2cZJZjlRq0rJ8aXc3FWDKBldtLvIMnbUd27va/WMakpLFdYRbMwY6098ReRqqDedo2eII6vafKtLYWY7LWlkBReqMgxMnxBUXaOQpUAIW4qwjhBakmZ+mBhKHTUms+S3iBeO0HJDN0gaMDONl0Xu0am9+m1ZBs5GnirR+s1spyVN7Iun3zZcCjM76CqOH19Y/zeY+DVI2SzS0vJ8qws2P7YXp1lWXevA8yAYtZSLo+6zsR/F6d1rej2jmmKogiJx94+s1W/LGDsb+5pChVpqiGbZ78qOH1fa8f1SmNmtfdX149VxI2NsYAa1lUjMYqg8Y+DC6snDM0cWuToPGHIQhIbKj6wLroCHEz9j4KDekBsAQAnq6uLj/gUZCFnGTCdsqfXlqU056Mr56Vp1v+JSmNluW04ytvq0J4jSiR3UP0sAAC1VoAQ9Pr1gojw4MVWJ1lPKNQtCsGdIpnPBHWt/4msyrVqqeREI4V5HvjDTgjFmOmH9sQAAYL+reMFaZ0iFuRRmJlCsiGT11dnYCmwvvr1fd8wDADBUniPo4UW7i0enTlsTastQmYIg2O1IthutLj8dmH63sjazq9nrSBMnXL0pcP04jNJWE2YmCxxH0Phzb2Z5BdRg4q/Yhp5NfD9Mbu+rdQ4sh3K4a4irdxeMscd9Z7fdwNYRIbjXkWwvWjGPoyQdWcFuLQoli+x3ZILRh0fmivc8OnN4iitttnQeHIcUiRuafnVC35fFzPY68sgKVlRMDCe+yBNZrKPsd5Ebu+q7j8cr/gx+mIzMoFe9Vu4iuU51xphzvjez3cjx4oNa9LYW2WlJlMOr16mHJ5bAE6OWetM5OIx6hjQw/eoyGy+FmRGC9rvy0Ay8c8RtsowNJn5LrbZX0AruXtNPh96KavZHZzaEYLfVgJkBAARKCEIrxBSsRs1MFEhXF+6v9GbvPBx3dbEeiZc5OIL2OtLZ2N9UAHt9LoWZIQg7uuCHyXlltn6YDMxgry3XoC64lCeuGxkDK9bjDw8tglGdNSaz5K1PLffchgSWG6VZVvOV4xQI4c099cPjc789xtg7Dye39+vOUMlBCHYN0XLD6oS+L4WZ5WEPAOA8b2Z70WDiX9tVmjKz6z1F5Mm7j8bnveGDQ7OjCWotIq2LCDxpqfzQPLeM2nRCnsO1FU0vcntfOxq44TmbgsHEH9tB/Xd6ORBCXeGjODtv+m3PpTAzAIAicpTDE3t5V0HHi10/7upiI6sdAAAheO9O+4NDc+nwGGMfHJm3ak+wmCLyZKctHfYdf9k8zjI2tgJJ5Gi9yZaz3NrT8gKLpT99+8GYYHSrifOtHF2hGMHxOdNvey6Lmcki19GEx31nsWKCMWZ7EQRArUv/cCnP3+kcDdylcUUYp8cD99ZeY7OEI2ivLQ8mvr9sPQ7j9GjgHnSVekRal5LXVZxXF/fOo0lL5bt1CVotosm8ofCPT5dMv1K4NGYmcG1dODxzFncXGQMjK+B5rNZbIjHHc3c7XpAsnShnIz+K0wa9GYSw1xajJF16SOMF8cnQvbGr1H+nN0WTeU1ZXujAGHvn4fjpm606qznnUCWupQmP+0umXylcFjPDGHYN8WzkLT5nkqSHfaeji03tfHKeuq6nGXt8tuSS+vGZnWWs/qzcWXZbkirR9x5PFn/kBYnjx7ttqf48pikIwTsH+qMTezEqm9jh6ch7/m6nkYHlEIx2WuLp0P2cezMIYUcXh1awWM0eJ9lR3+nqQv2527PwlOy0xcNluXlvPxjvtKVG7nymtHWxq4tvP1hySHM69CiH61SPXMqXnu4dDZzFZIvHZ04Up/dutxsZVQ6EsNeShlZwYflpMS6LmQEAOrrA2JLwPU6yiR12jcbOP6bc2FFPhu7caZ4XxG8/HH/t+b2mRpWDEby5pz44tRbDgbceDHdbUiMJFrO8+Myu6UYPT+bDgYenNuXQtXq1JxbZaUsQwIr6MF0iM9ttSYZK/+Lnx3Ov50UK9TTjWc2dA31sh5NPF1A+OLZMJ/x602YGALi1p1lOtNh+8t1Hk72uLAmNnX/kGCqvSfTRqT2bTMMYe3hi3d7X6lSzWspOS1Qk7ucfDKr48EtkZorE3bvd+eGrh3OVXa+92xd57sZuw6sdAODOvma70WCmYIcx9t7jiciTBo8Zp9ze1ySBvPLO2eyLfpgc9d1be2qzESMAgGB095r+4MTyZpLCvCA5GXlPXjcaHFiOLvNPXtdffuUwzcqPGy+RmUEIv/Lc7sgKfjGzwWCM/fCVx09eN7pNVJrNoSs8hPB09ImMVBAl94+tJ67rHGnsEG+KrvB7HfnVt/uzL/7iwQgCcH2n+VWAYPjUTeOo78wWevfHvuWET99sNTiwHITg157bPxq47z9elRRW8MNL/8RtePZWu60KP3rtcPrKgxP7sO98+d4urqfJyko0hd450N78YDRN0u2P/cO++8UnurXpUa8AIfjMzdZr7/Rnj8te+cWZLHL1NOldDYRwry2H8SeanIyxtx+Owiht9pB2yi891VUl7uVXHpf+yc1Pjlkwgi99+fqr75zlWbCMsT/+q4ddQ/zC3SaPoaYoIvelZ3fefTw56ruMMcbY6ciLk/SgpzR+PJNz707bD5P3Pz7Wj5P01bfPnrnVugyrAACgrQstlX9wbOXHSJYbvf5u/yvP7TZ7VTOFYPQff+XGX711smm/7Au5FN/+LC+9eD0I05++NwAATOzwr948+dtfus7XXvO7FAjhUzdabVX467dO0pTFSfbg2OoaYv0V0+fx1A3juTvt/+s/fGA6YZaxH756eDLyvv6F5o9ncloqf2tf+8X9cRAljLEPj8zTkfe15/YavDef4z/6yo0wyl77dOC9PZfOzPa78s099dV3zqI4ff3dvhckv/rCtaYH9QkdXfylJ7t/9eap7UXvPBz/5Vund/a1ehphr4PIc//1f/rFDw7NP/vp0Vv3h//qB+9991fvfOFut+lxfQTB6Pa+dth3fvCTx0GU/Phnx7cP9Jt7WuPHM1P2OvLdA/3Vd86SJMsDlhVv/r3f+70//MM/9LyLNTwvhZeYBSH4t764/0//zVvvPzYtN3z6VqsRmZ3zwAh+5d7OH//1w//1n7/+8NS6uat+44sHTdUNLOWJa/pLX7r+h3/6IUawa4j/xa8/3WDG8BwQwhef2TkeuP/yB+/+9L3+o1P7H3/nXrM5dHMgCL/14sHv/cEbHx6ZjLF/+O1nv/78/nlv/v3f/33P877//e//9m//9je/+U1Kz11tSRiGaVptO4xN+dYv7RoyeXhqnwzdb3/9VhRVKDlUgK5Ov/JM509+8vg/e+mJX//qTY6gyzbCX/nizvuPBod957/8O18gMAvDynsrrw+HwG9+69ZT15R/8q9e3+sqz93SL9u39+KT7f/8pTthnPAcvtYVVnx7iqLYtv3GG29873vfe/HFF3/nd37nqaeeWvpO+Oabb14el33FFZ8h3njjjXyN+NGPfvTjH//4pZde+t3f/d3ZN9y6dSv/D+j7PiGXLnS84orLz2/8xm+cnp6qqvrCCy9885vf/M53vtPr9WbfMDUzktPEIK+44rONpmm3b9/+7ne/+9WvfvXatWsYn7sHhnEcX5nZFVcU4MGDB4IgdLvd8wzsE29W46iuuOJzxdSKLuQSnURfccXnlSszu+KKyrkysyuuqJwrM7viispBK04hr7jiilL4/wHWuQJ0Z27vPQAAAABJRU5ErkJggg==;clipPath=inset(1.34% 2.76% 0% 1.03%);imageBorder=default;strokeWidth=0.25;" vertex="1" parent="1">
          <mxGeometry x="60" y="120" width="211.71" height="140" as="geometry" />
        </mxCell>
        <mxCell id="k3kbHFxBEWqxozOYYOGE-5" style="edgeStyle=orthogonalEdgeStyle;rounded=0;orthogonalLoop=1;jettySize=auto;html=1;" edge="1" parent="1" source="k3kbHFxBEWqxozOYYOGE-2">
          <mxGeometry relative="1" as="geometry">
            <mxPoint x="580" y="190" as="targetPoint" />
          </mxGeometry>
        </mxCell>
        <mxCell id="k3kbHFxBEWqxozOYYOGE-2" value="25% Perturbation" style="shape=image;verticalLabelPosition=bottom;labelBackgroundColor=default;verticalAlign=top;imageAspect=0;image=data:image/png,iVBORw0KGgoAAAANSUhEUgAAAQEAAABdCAIAAAAqtUSSAAAACXBIWXMAAA7EAAAOxAGVKw4bAAAgAElEQVR4nO2dd5Ac153f3+scJufZmc2LDcAusARAJBJMIiQGiSdRgbTqJLkknS1ZPpfr/lGVr+xyucp/2P7jQt3p7up0Ot9ZJ/GUKIoixSBGEIkAibBYLBa7i82T80zn8PzHgBCITTM7PbtQYT5/AZie7oee/vZ77xchQgi0aHEXg233AFq02GZaGmhxt9PSQIu7nZYGWtzttDTQ4m6npYEWv09URDWdF609Z0sDLX6fOHkp9g8vjlt7zs1roFCRZVW3cCgtWqyPqhkXpzMnL8XyJdnC025SA6qm/5fvnXz9zLyFQ2nRYn3SBSldkBACF66lLTztJjVw9koylq4ksmLLzdxia0AIpfOiphleB/PhtZSFZyY28R3TRC+fmkMAFCqKqhk0tZmTtGhRF6aJ4hnB62Q7w44L19K6YRK4NbvZzZxlOV25cj27Z4evLKolUbVkHJZgmnfWpJQtSldms7Lye7Nr0g3z0lT6TruNVURFn14q9EScB3aGskU5lq5YdebNaODsRIIksE/f11MRtZJwp2jg+nLxu391PFOUtnsgNzBNNDaT/eufXpxLlLZ7LLXy4dXUX/zr+fk7csCCpC2nhY6QfaTPBwCYnM9bdeZaNWCaKFeSK6IqytqHV1OP7O8IeFjTROU7RgPTS4WldOUXb02Zd8YWRdPNpWRpIVmemM1purndw6mJq3NZQdaXrXvFWkihokiyFnBzdo7qjTqvzues2ovWpAGE0IVrqf/6dye/9/NLv3xnJpUTP3mwgyYJhsLvkHkAIbScKpM49s6HS4mssN3DAQAATTdiGcHOkecmkuU7acW4FgihawsFTTdi6TviBt7GxGzO7WD8bhYAcE+//3qspGiGJWeuSQMXp9J/9dOLg53ukId7/0oi5OW72pwUiXEMWSgrd8J7V5S1RE48NBy2c9Rrp+fvhBWtqpuZgnxkpE2QtInZ7HYPZ2NkVZ9PliEAsXTlTjD3lUVVN27Mn6KsnZ1IRAM2J08DAPYPBcuCupSyZr7a2KSzmCz/8JWrfe2urz6xkyLxh/ZFCRzDIKRI3GWnCxVFuwNMQ9minC8pD94Tjfhtb324+Il0pT1o394hSbImyNr+nUHdNF87M3/fnsj2jmdD4hlBVvSd3d5cWZYUnWPIbRyMqhn/+5/P3jMQ+NShLhyDf/PzS4WyemR3G4ZBAEBf1AUBWEiU+qKuxq+1wbOrasYrp+ZME/3nZ++p3pSOkKP6EUXgfjebzImyuv0ayBRlVTfCPn641/vqmflzE8lowAYh3MYhLSQqNIm3+W2Hh8N/+ZMLV+ey/R1uDFtl4jVMNLtcnF7K50vKg/uibT7b1o8WALCQKBsmenh/+4vHrxfKyvZq4MK19KWZ7PRSMZ4RChXlg6up//7NQ4OdnuqnFImHffxComzJtdZ7dhFCS6ny1GLh2WP9K+8ISWAeBzM5n5dV3QloS0azORBC2YLEMyTHkCxNHtoVmlrMlwTVadvOUc0s5x085XOyQQ/bGbb/j384g0E42OX56hND7UH7TX3quvl3z1969/wyTeGirHeEHWEvv2XqXU6XP7iSfOK+boLA5xPlsI/v73DLql4oK23+7ZEiAAAh9MbZheEe7xP3dT332mSxov63bxzavcN/8wAIYSRgSxckVTMoEm/wcutpwDTR1GIBx2FXm3PlpxgGnTytqIasWLM12TSqbiZyos/FsDSO47C33TUxnytUlO3WQDHg5lgahxB+9yv3zsVLyZz41geLb51bfOaTAwxFAAAQQmeuxM9OJL/9+d3dbc4fv3ZVkDQTIXyrNPDSibm3P1jqibqGuj0LiVJ/h5ulCRtL5spWBuTUS76snLua+sZTu46MtEV8dt0w+9pvX/N0hBynLsUKFSXg5hq83HoaqEja2Eymv93l5KlVD+A5UjdMSdERQtu48BAkLZEROsMOhiIgAF4Ho+lmqbKdphjDNBeTlb39geptcdroPTv8hmFiELz43uyhkfBApwcAkMqJr59e2DcYPDoaqUgax5CCpJkmssgBugEmQuPXM5Kinb+WDnn5fFnZPxQkCcxpo/Ml2TRRdfG99ZyfTCHT3D8YhBB2tTlWPSbq5yuiVixboIH1bna6IC4my4NdnrWmGxtLYhjcdsOfIGn5shz0ciSBQQg5hiBwrFhRttG4kcqLkqJHAh/bl+M4tn9nyOdinn97GiGkG+apy/GioDx1tAfHMZLAWJqoSJq5Vb6EXElO5sThXt+1hfz49awoazs63CSOBT1cpihbZXmsFxOhM+OJXT0+n4td5zCnjQYQFCpK41dcTwPnJlIuG7Oj3b3WO97GkjaWTOWk7TWPCpKmaIbHzlTHyTGknSNzJdnYPgvp1EKBwLFo8PYltZOnPnWwa2wm+08vXfnz5z58/u3ph/ZF2/w8AIDAMZYmqmuhrRnk9eWipptffGRHoaKcGotBCENeniCwNp8tnRelbQrxSGSF+UTpkXvb15+FaIpgaaK5GtB089Sl2M5uj9fJrHWMjaOcNjqeFbbSHo8+ovpX00TxrMBQhMdxY5wcQwQ8XDwrKOq2bVSuzuedNsrnvP1NBiHcPxQ4MhI+O5EUJf2Ln+h/cG87SeAAAALHOKY6D2zRzby2kPc62N6oqzvsOHc15XEwBA5xDPrdbKGsiLK2NcO4FYTQ5ZmMaaJDw6H1j6Qp3Gmjs0XZMBqdN9fcD8zFi2VR293nW2ehz1C4w0YlMsKWTd+guoqdyWq62dfusvPUfKJ09koi4OZcdvqjURF+F3t5JquoBs9ug4EPIXRtId8Xda36JsMw7JufHdE0g2fJW+8thIChcEXRt0YDumHOxUpD3R6WJkb6fKfG4hG/DcMghNDGUZqOJFmviGoyJ7YH7Y3bXmoeFZpaKOxod7P0Bj8cTeIBD5spSIpmcI3tn9bUwKWpDM+S7aH1PE0QQp+TvTyT3cq1kKoa//jrK2VR3dXjjQRs5ydTEICnH25nmRv/FwyDHgdTFlVZ257ZfHqpsJSqPH6oa60DaBKnVzxVEEKaIlTN3JqbmS/JmYJ0aDiEYbA34upuc/REnDgGAQA2loQQnBiLFcpKPCM8e2zgnoHAFgwJAFCsKKmCtH8wuOGRFIn5XdxCPKloRoOujDUFdGk6E/Hb+I3O3ubjy6JqbW7b+iSyYkVSjx3sMEzzrXOLu/t8/+ELe0Z3BLBb3qluO6OohiRvgwYyBelnb071d7gObDSbr4SmcEVr7jxwZjzx0zeuabq5nK6IsjbU7QUARAO2b39+z6HhUPUe2jjSwVOvn1lQNQMA8N7FZb3h9UaNZItSsaJ0r2aLvw0MQredFhVNbXjFu/o8oBvm5ZnMlx8b3NDi2RFycDR5aTq9ZS6VM1cSThv95JFuG7e6xRYA4HEwLE0sp4VeK3zptaOo+ssnZ+dipf/1x0ftaw9vLRiKUDSzqVv5n71xbSlVcfCUppt2nq5uoigSv/Wxc9noZ4/1UxQRDdhOX44/99rkXNyaqIQNSRckEsfcjo0dOxBCp43SdFPWDADAOx8sFUXliSPdm0isWV0D8/GSqpv9KxwTK/E4mYCbvTiVeexwd73X3gQmQucmkj0R5zoCAAC47LTDRs0nigBETIQkWRdlTVIMv4thmxYCYCI0NpM9PRb/8qcGHfULAABAU7iqG82bB8qiem0h3xl2vHZmgcBhm5/HV9uxQAj72t3VPw92umkSH7+e7WlzNttdYJgoU5AcPMVQNW0/7BxNEXi+JNtY6vsvXrYxpN/FHtgVwlcLSFmH1Y+eWiyQBLaqe/j270PY3+m+OpdTt8ScnClIC4nSSK9v/cM4hvA6mKVkBQAwMZv7l1cm/vInF/70b0+cGos3b2y6bs7Gih0hx3Cvd3OPC03iCKHmVeuYWsgjBL7x1LDXyVydz/e2OVfVwK3wDDXa75+YzW1BkLyk6ImsGPbxLF1T+JmdJ512ei5e+tGrEw6e6o44fvv+wiZy3NfUQEfQbqvNqDLY6S6L2tYkH52fTOMYNtTtWf8wCGHQyyeywvvj8X/89XiupBweDvuczMXpTPPGZpgoV5LdDnrTWzSGwkmiiSkZV+fzAQ+3s9vz2Qd779/TNtDp3lCrFInt6vGl82IiJzTb5yhIWjIntvlsKw0Gq2JjSZeNPnkp/s6Hy08/1Pf5R3bIqvH6mXndaFgDqmbMxop7+v01hj/0RlwsjV+8lgYATC8Vnnt9snlzwvvj8f4Ot9expsviJm0+viSof/mTC/3trm9/fvdjR7qGuj3Ti4UmDQwAYBhmvqQ4OKrGn3AlNIVTBNYkDWi6OTmfu3dnkCTw/g73v//cyMognJVACDtC9rCPP3Ex1uydsSBpgqT53GyNsyiBYz4Xez1W7Gt33T8a6Qo5Hj3QcWosninUV4huFQ0kskJZVPf0+Vd+tCoMTQx1ecZmsoKk/fq96z9+9WqTXIyFsjKzXDywK1SLODuCDprCH723448+O+K00RiE7QH7YqqsNM1gqpuoIql2ntr0upmhCJLAi4IFvs+VJLJCrqTcuzMEACBwzMHTJIHXcifddvrgcPjNc4tvnltsxsCqIIRKgmIYpttO1/jyhRD6XSxFYN96ejdN4jiO9be7KBJfTNaXW7PKwmspVdF1c6DTXftZRgf8z71+7c1zi2PTGQhhPCs0I2ZzYi6nG+b+oZps1UEv9+d/8hBzS2JDNGhHCMRSQndk433OJjAMU1J0+xrxhbVAkzhJYE2K9ltIllXN2LXRMnIlEMIjI+F4Vvi/L12hSfy+PRGSsD6mzzTRfKLsdjBu+8aT/E32DwWCnoNd4RtxdU47zVD4UrpyoJ5L3/6fQQgtJss+F1uXh3VPn78iai+dmB3q9gbc3LJFSW63MbNU8LnY2uMEmY9n9kT9NgjAYsqaxIuVqJopq8YmTKI3oUicIpuyFjIRWkiUgx5uc9lOOI599oHexw93/fCVibHm7KkME83HSz4X46jnJcKz1GCX9+ZfOZq0c1S9j9/tGlA1Yzld6V4jYHUtwj7e72KdNuqzD/R6XYxViZ63Ypgolqn0tDk3HaTttNEeJ21V8tFKciUZx2BdP+FtYBjkGbIZGhBEbTldacTGT5H4M4/2D3Z6Xj0914zVmmGipXQl5OUbmWQwDAY8XL11MW6/3tRiYTZW2rOj1s3AR9fGvv6ZXf/m2EB3m8PjYOIZ6wsTlEW1WFFvZnJuAgyDPW2upabNA8mcwNJEI/MAAIBnyWbEomeKUion9Hc05OeiKeIzD/QuJsuXZywuEWCa5qmxWKEkh32N5tAF3Ww8U19NgI/NjJKiH7+4HPJwO7u9a31hLQ4Oh6t/8Lu581eT9X59Q/IlWZC0rnBDmfK9Udf743FdN4kmrGhTOYmhiEbmAQAAz5IVyXoNpHKSaYKAh2/wPO0B20Cn59yV5Eivr8H/6U3m4sXvv3B5bCZ77EDH8Eaenw0JeLiKqFUkrfaX0ccehZmlwvhM9tEDHU775ne0ARebzEuW29GyRVnTzZC3oV+xN+KUVSNdsKYWHUJIkLSbyTqpnMgzRI0+zrWwsWRZtDhoWdWM+UTJ52KdtkafWpYm7h9tm40VZ5YKlrgLyqL6o1cnJVn/n9868p0v7NkwPm1DAh4Ow2BdNaZ+pwFZ1X/+1tTuPt+uHi/WwHwU9HCabmatrnmYLUp2nty06b1KX7tT1Yxkzpqlmqabb55b/PmbU6KsAwDSRdHrYhucym3cjXRKS0ZYpSxq1xbyfVFn429uCGFvxNUZdpwZT1iSR14RVUHSnnqgZ7h3vSj92gm6OQyDda3Gf6eBsenMYrLy4N72BmPu/W4Wg8DaLYFpomxRdtnoBtcwHgdDU0Qqb40+dcO8vly8MpcrCQoAIFOQPTU479aHZ0nDQNbmrxQrSqYodYTslhRqdtiogU73bKxoSUyHqOiSotdlD10fG0fZeWqT88C755dDXq43snnDSxWfi61XiBuiqEauJAc8DRkNAAAYhvlcbCpnTUMr3UD5shxLV0qCqupGsaJYogEMg0UrUgRvMr2U52giErBb8qLFIAy4uYqoylak6Umybprm+hGQdYFhsM3HJ7J1/MQ3HilNN05fjo/0+RrfLHIM6bHT8XoGsSGSoudKcpuPJxt+k4U8XLogmVZkvhmmmSvJZVFbTleSWRFCWEsQx/pUyxQULHWTnZ9Mh318yNto/YWb+F0sRRJLSQssbJKiEwRmrdMtGrAn6lnu3rh2NfNwn0XpQtGg3draxaKiCZLmczKNh++2B+0lQbVk32kYSNfNkIebmMsvJss4Bj1r517XiI2lMAgL1pX3kWRtZqkw1OWpN6J4HXwu1sFTU0sWBF+Jsk4RuLUaaA/YihVVkGr9iW9c+8K1tN/NdoY3b32/lTafLZWzMtG+GoBk46jGZ/NowFYWVUtKxkuKDiEc6HTPxYqLqQpBYG6L1kKWlEuocmEqjQAY6Kgj8mVDOIbwuZi5eKORwgghUdZIArOqo0yVaNCuakauVOuuDwMAyIp+ZS53cDhULXDQOJEAXxE1q3w9CKFSRSUJzJIEeY+TMQyzXPNLYh1yRZkksYFOT1nUxq9nnDUnf6wDTeI0iRXLimGYy+lKrig1aII8fiHW5uPDltYwhRBG/bb5eKnB15yJkCBrLE0QuJXZORE/r+lmtljrXIoBABaS5VxRut+6wsgRn103UM6iJONq9RSXja4xn2F9aAqnSVywwg+VyosMRQx0uVkavzyTDXq4xqcpDIN2jipU1GRe/P4LY6fHE0ad0fC3Ypjm+cnUYJfHcp9gJGivSFq+3NB8pemmIGl2nrZ2HnDZGJLAcrVrACE0OZ+jSHyoq+6IwrWIBnnDNNMWmSBNhBZTZY+TsXFWaIDEGZooCWrjLp5kTmRpoiNoD3t53TBDDXthqzhtdKYknbwUPzeRSuYEzdi8+WUhUa5I2s76Y0U3pD1oI3A4s9zQlkDVzLKoOXjKWg1UC4tkateAppszS8WBzjWLyW0CB08zFG5VazDDRKmc6HEwltwpksDddqZQVhr3ZKcLko0laRIf7PbgGBawyPDitFFLycpv31/wOpliRdX0zWt1cj5PElhPxPp0eL+L41lqprFtsaYbFVF18JTl05TXyeRK8s3XnKoZ+bK81soNk1WDZYgDO+suBLIOEEK/m8tYFJJQbYXmdTbqgq1CkZjPxaQLkqo1qoFsUfI4aAjhrm5vyMN1WWRRcPB0IiP4XMzR0citvVg2weRCvivsaDCMb1UIHOsK22eWio2cRNNNUdZtLLlhWnO9BNxcOi8WBRUAgBB65/zSL9+eXsvrgvEM8en7e0b76wsU3RC/i42lBUsSykqCKitG4+6nKhSBe5xsriireqMunmxRrhqCOkKOb31+d49FqTluO02S2ONHujtDdkU1Nt3PT1b1+XjJ8l/2Jr1R11KqrDTgLVY1UzcQSxOWFy3fs8OfKcgnLsYU1bg8k/mXV65emEqn8qv7rDAcxyJ+m+VNRx7Z3z65kH/l1Fwj96jKXLxEkfg6ZU/rAkLgtFEVSWsw6VnVjMJHjmGSwPbs8DMWNeM5Ohr57lf2H9wV4llK1Ux9sxpIZsWSoO4bbFaJuP52lyDrdXlkb0PTDcM0mdqqSNTFrh7vowc7fnV85vX35//iXy+EvDyOYWtZnJtV6H73Dv9Xnxj61bszb36w2ODKe3a5yDGEVSElEEIbSymq3uBaKF2QMAitmp1uxe1gDuwKV0vwqrqhbfbuLaUrhmn2d1i/Ia7SE3HphrnpfAyEkKqbpokaNyivhCLxR/a17x0I/ODFcQyC//SlUZ4h1yrH36w+YgSOHdndli/JP/nttaEubyNr5dl40e9iaevulI0ldQPV7kdclURGwDHobiDIfEN4hoAAbM6MixCKpSvRgL0Zub9VeJZs8/ETc/kDuzbpWZIUHcDbU16tgmfJpx/qYyjivt1t1ZpruZKiG4gkbl93NbHhCU3in7i3I+jhj59f3vRJEELz8XLE0kKONpbkGKLBCOpETiBwCxzD68AxJEsTtft6bkVWjXhG6KkzJ7ZePnWo6/L1zOZ2xgiBUkVhKIKhm1XU2u/mvvbkzr52F4FjATeXLUjyahvU5jb9cfDUrh7P8YvL2mYX3yVBzZXklc0sGsHGkTaOWroloskwzV+/d/319+drP0k8I9g5ssaKaJuDZ0mWJuo1r52+HH/vwvLscjGVFwet8/msyoGdQZ+LPXEptolJ1UQoV1J4hmSb39SUwLGAm80U5VWNNM29PIRw/1DwV+9evzKfq71g0a0sJssAgIjfymbDDE04eCr50WYOIXTyUvynb0wxNP7ovR3r2CgQQiVBhQA4bHQiK/rdFjiG14FjiHrnAcMwv/ezi6pukjiGYdDaEImVOHj6oXsiP3lj6vBIeKjLU9fdQAgUKgrLEM3YE98GhMBlpyVFX1UDTW/+1t/u9rmYExdim/PLzsZLOI61+axxwVbBIPQ62WpGJUJocj7//NvTbgcdSwvrv3TLovp/fnju71+4nC/JyZwQ8FgWjbwqJIHbOCpfTwxpIifky8pXHx/69P3dD++LNnW7AgDAMDjY5Q37+JOXYvWmEyCECmWZo1dpxWA5EEI7Rxkf9Y+87dOmawDHsQf3tl+YSm0uXHk+UQp7OctfFT4nkyvKpoliGeEXb00HPNx3vrAHw+DVudw637q+XJqLlcZmMm9/uJTKS8EmawAA4OSpukqtzMZKEIJ7d4WeOTbwbz+9awu603qdzD39gSuzuXp9QSZCgqTbuM2X5asLO0/hOCysFuC0FU1AH7wnIivG2HS63i+aCM3FSrWUxawXv5tVNGMxVX7utauKpj/zaH9vxBUN2MZn19SAYaJfHZ85OBx66mjvq6fnJVnfCg3Y6Lpyyq4vF71OtvFUntqBEIa8nKoZ9WoAISDUU/2hQRw85bIxy+nKyvYOW6GBoJfvDNkvTqXrzd4SRC1XlHtqKAFfLz4nSxH43/7i0mys9KVH+ztDDgyDo/3+6aXCWr6zK7PZmaXC0dHIsQMd1bXvlmiAKotajQ4WhNBsrDjQsXE1aWtx2miCwDa0sxmGeaueEUKCrFkSC1wLNpZ02qjldGVl1NBWaACD8OBweCFRzhTqM/MlcoKqG80oD+p1sRSJXZnNfe3JnYNdN9oF7BsIFCtKfLV0bITQz96Yivhtu3q8No78w8cHv/X0SDTQ9NY7DhsNAaix1VVF0tJ5qdm2oJW47DTHkOsXF0QI/eDF8T/9mxOvnp6rGig13ZQU3ZJY4FogcMzrZLLFVSLnmr4lrzLa73/5xOxCslzLPrJar8HtYJaSFcNAXQ3UllsLlibuH40E3ey9twQL7ur16bo5Hy91fvyKCKGJudyV2eyffHlf1RnkdbKPH9mKvjtOniIILJUXPU72+lKBILDqlLXqwYmsICn6zi4rU8ZqwcHTPEuuU+XTMM2XT8y+enp+qNv9Ty9deX888eDeKIZBAocWZtOvT7V/ZH61rtVbpAE7R/nd7Fy8tHcgsPInRAiZJqo2BgUAnB6L//XPLgbcrGEir5Ntku3s2WMDt/0LTeLRgH02Vjo6im418wmS9sK7MwMd7nt3btwv0VqcNpoksGRW9DrZf/7NhNNG/dEfjKy1042lBQBALd2DrAXHYNDNzsdXD5rQdOO9C8vPvz39h48NPnl/9+R8/rdnF146MSuremfYsZVbF7+blVW9UJFvJiRWbURbpAGGInqjroVESZBX2QZli/LxC8v7BgPtQXuuJD/3+uTR0chAp3tiNrdlrf6q9EWd8Ywgyvqtt+mDq6nFZPk7X9hjbapHLfAsyZB4MifaeWpqMe9xsKKsr6mBTMXvZresl/CtBDzcmfEEQmili2ApVXn55NzD+9s/fbSHwLHhXl9/h7tYUUqCSuCYd0Ub8+bhdbEMTcwul6ruJhOhU5fiQQ+7RT8qSWJ9UVcyJ1Z3RXPx4gvvztwsrHn2SuJHr1597rXJeEb45Tszoqw//XDfI/vbv/bkzscOd27NCKsMdHmyRSl9SyOTdEE6cSk2usO/o32r1xgAAALHXHYmlqmcnUh6HCxCKL1GkxVNN5M50dqgktoJuDlB0oqrlYSZi5cMEx070HnzDUKRuN/N9UZdneE113XNoGoxOztxoxhurii/8O7MUqqyRRqAAAQ8nGmifEk2TfSDF8dfPjk7OZ+vfvrexVhPxJktyX/24w9fOzP/zLH+am6unacsD+pen7CP1w2UzN3wlBkmujyTSebEB/e2Ny/4bH28LmY2VhqbSj+8Nxr28RNrWG9LFaVQUqzK46mXgIfDMawaQ7qYLP3iramKqIJqLnhG8DoZS+ohNAhFYKP9gbNXEtXIjpnlQrGiDPf6tkoDEPqcbNjHT8zmXz45OzGbQwhcnsmompHICteXi597qO8rjw+ZCAx2ej55sLOpMQjr4OAov5udWsgrqgEAyBWltz9YOrgz2BW2pkjbJvA52flEmWXIB/ZGogHb+PXsrZ7OaviGKGvpolQU1Fq6WzeDoJsjCWwuXjIROj+Z/vFrk7OxIgBAkLV4Ruhuc27LCu02IISHRsIIgfcuLmu6MTmX74u67Hzzw5Vu4uCpjqDj/SvxpXTlscOdYa/t1OV4MieeHou77PTObo+do/74S6N2ltyupw0AYOepPX2+U5fjmaLU5uOnl4plUR0dCGyufYsleJ0MjsHhHm/AzfVGXCcuxgRJu2lOKVSUP/vxea+T5hkSIeRqvmN4VTiGcDvohUS5IqrXY0VVM89OJEf6/BVRyxSlg8Oh7ZpFbyPgZnf1eo9fWB7s9FyPFY+ORkgLa49tCIbBzrA9mZP8Lu7ph3fs6HApmjG5kD91OX5Pv9/B0xDCrrDD69q6TdJKCBzra3cpqjEfL5kIvXlusSfi2q4FRpXOkKMz7HjgngiEsDfqxDFsbOZ33ZDe+XDp2rVPm8cAAAMQSURBVEKewLBL05mgl+OY7dEqhDAasC8ky+m8lMiInWH7xWtpw0TVfGivk22kkrmFQAg/ebBzLl46fTlekbSeNieEW2UXqtIbdR4eDh0eCbvtDElgXSH7r9+7vpgo/7vPjWzlMNYnGrC3B+3nJpIeJzMbK37zD4abGiC9IZ1hx3/84mhXmwMAEPLwAQ97eix+eKQNAJAryscvxD6xv/3LnxqMZwWKwBz89swDAIBowPbhZGopVQEAPXhP9Pl3pufjpWRO5Giy8b4HFrK7z8cz5G9Oze3q8XpdDIRwS2cot535+lPDIzv8AACeIXf1+vIlOeDl+rfD5LIWHEOM9Pkuz2T+38sTfje7dyCwjWszAABF4jvaXVWjCkFgwz3e0+OJavTE6fF4riQ9e2yAZ8m+qKsj5GhGf50a6QjaBVE7fmE5GrQ/uDfKUsTxC8vTi4Wwl3Nv0wptVRiKOLI7XJG0/g531Uy/pbcMQkiReHVahBAOdXp6Iq6H97ZvcXzL+kAIh3t8dp66NJ355IHOO2Ezdyu7d/g13fzt+wvLqfK5ieThkbZGusFaSDRg1wxzfDbbFXZ4nczuHb5TY7HZWDHk47cgQ6Aujo5Ghzo9NxMetnNwfjf79c/ssqpghIX4XMz+oSAOsYPDVpZdsoQd7a6njvb85uTsK6fmVM145tH+7R7RDQJuliQwt53piTghhAd2hl47s6Ab6Alvo232LKcr7PjuV/ffNLtvpwYghO1BKxPErAJC+NjhrvtG2rbYO1ELJIF/7cmdo/3+k5fiHgezXU6xlZAkHvHbfC62I2gHAOzs8fIMSZF4uLEWcs0Awz4Wp3RnTVJ3Dm57fQ3TtxII4Z4d/h3tbgjB9u7Xb+PZY/00iVfdYTaW3DcUKFQUC3t/NAloSXfBFi0AAIaJIAA3d3clQRFkPWRFOe6m0tJAi7udO8J716LFNtLSQIu7nZYGWtzttDTQ4m6npYEWdzstDbS422lpoMXdTksDLe52WhpocbfT0kCLu52WBlrc7bQ00OJup6WBFnc7LQ20uNv5/+ibBJRnsHtnAAAAAElFTkSuQmCC;imageBorder=default;strokeWidth=0.25;" vertex="1" parent="1">
          <mxGeometry x="320" y="120" width="210" height="140" as="geometry" />
        </mxCell>
        <mxCell id="k3kbHFxBEWqxozOYYOGE-7" value="75% Perturbation" style="shape=image;verticalLabelPosition=bottom;labelBackgroundColor=default;verticalAlign=top;imageAspect=0;image=data:image/png,iVBORw0KGgoAAAANSUhEUgAAAQUAAAByCAIAAADVpFMLAAAACXBIWXMAAA7EAAAOxAGVKw4bAAAgAElEQVR4nO29WXBk2XkeeNa739yQWKtQKNTeVdV7N5tkN9XmKotNUVaYo9FoHBIdclgRjrDs8ZPnwS+emJhwaEZPdgQjxjOasUnFxHCGFilaJCV1sMluskn2Wr3V1lUFFKqwI/e8y1n9cBKJRCYKBaAAJNqN7y0Tufy4N7/z7/8PtdbgEIcAAACglF6pxoFHHYtACPstTh+A+i3AIQ4QKo30P7304Qe3Sh/bM/KQD4dYQxTzqbnaYin62FoNh3w4xBq4VFyolEvwMaXDIR8O0QEhFZcqZfLjSodDPhyiA0JoIVTK5MfVXDrkwyE6IKRixl76uBpMh3w4xBqEVEKohImPrX4g/Rbg4wilNBdKaQ0hoARhdFBOJeM/MK76LUjfcMiHPmCpEv/49ZlalFKMHzldfPLccL8laoGLVnzpY6sfDsrJ9LHCncX6T968kzL15tXF7/70Rr/FWYOQiguZMvGx9R8O9cN+Q2sdpyKfsV94dhJjeG263G+JWtBai9X8w8eUDYf6Yf+hlG5E3HVI4NKsZzUi1m+J1sCE0hocxlt3ghdfu/2tH17ZRVE+JpBK15vMs6lFsefRZsKlPBD+q9KAMQkA+Dj70zvkg9Z6er72N7+aPiD38iMEpXS1mXoOsSgKXEtpkDDRb6EAAEBrnTABIUi56Kpf4kK++u7sgVJle4Qd8kFIlaRypZrcXWzsrkD/1UMqXY+Y5xCL4sClWoNmciD4oLROuXQsLES3tVSqJd/4zru35mp9EWw/sUM+rGYxwVvXFndVnv/6oZSOEuE5FCMYuERrHSe830IBAIBWgDHlu5bS3eWt1QZLmSjXkj6Jtn/YKR+4icqBN64e8mF7kEonTHgOgRAGHtUARAdDP2itUy59hyjdTYhGxJQGzfhA8HZP8QB84PLssfz7N1bi9EDczo8KlNJJKj2HAgAC19IaNA+GflBaJ0wEHiUYGeXfRj1iUqnGIR/uBcZVytTj54aYUDfuVHZXpp1BKT09V7s1Wz3gvSxSqZRLzyYAAN+lQOvoYBwoWgPGpe9SSlCcruNDI+JKgYPMh2ojfffG8oN/zs71AxPyzHgu9OjlqdKDy/HgEFL91c9vff+VW/Xo4N42AEDKpZTacwgAwLEIxjA+MPYSF8q3KUGoK+TVTLjS+iDbS1eny//7X7wr1YNGO3fuT0MAfJeenxy4MlU6CEey0npmsf7hncr8SrPfsmyGWpMRDI29hBD0HHpA/AelgVTacwhCMFmvsuoRV0o3Y34QbvSGWKnG8ytRrfGgEeGd6wcEISXo6fMjs8vNcr3/kQetwEo1uT1fm1moH9jbBgAoVROLYsMHAEDg0QPiP2itpdQm8NVlwjUiDgBImOTigKabGjEXUi1V4gf8nAfgA4IEo8dOF1Mmp+fqDyjHg0MqFSciF9hXp8sHWbOX66lFsbGXAADBAdIPWirluRvoh0bMAABcyORguDpd0FobPiyUogf8qJ3704YPQwXPd8ndpf5n5WpNZlv4sTODU3PVWvPgZlLLtcSi2LVbfPA9Kzoo+gFIpT2bIgTjbj5wmyIuVHwwUuld4FJFCdcaLPdFP5hANYKQYAQhHMi65Xr6gHI8OBZKkU3xwyeLSoPb8wc3k1pppJ5DKGld+cClB8efVkp7zkZ8iPhQ3uNCJUze6+19RJpKcw0Xy/3QD1qDJBUWxQRDAEA2sKv1tO8m+/xK06b4wsniWNH/5QcL/RVmE1Tqaca32tPvjP/Q96sHVv1p3yV4Az6wI0MBO6j2UsJElAqM4GJf7CWpVJRy18GEIABAIbSbKe/K4Ow/FkqRZeFizjk7kX/vw2Wp+vkL0z0p3jZqURp6Vvth4FpcKHEAyiK10lIq1yYIruODlCpOxXDek1JvSz8kTMwtN7b4rzEh/6/vv/+Ld2e3LTcACZNxKo4MBcuVB43r7IgPUkeJcC1CMAIAFHJukoi+O4WLpSgfOhihh08OEoL+5pdT+3boaq1LtWSh1FRaAwCkUj99687/9H/+YmquOzmota42WMZf40PoUSF1yvrPBy4kgJASbFs47fjdx0xoAELfsijaVi3Cux8u/5v/8PoWq57qTTY1V/vFe/PblhuAhAnO5bHhcKn8oJMFN+bD5pyWSkcJd50WHwYyTsxE353CxUpUyDoAgKPDwVMPDX/v5ZvV9V51M+YzC/W9OImZUD96derbL1435oSUen4levPK0l++fDNZn+gVUjVj3qkfQtcyGetdl2q7iFJBMKIEWRTHHXyIEqE1CD3Lpnhb9hLjstpIt6hSEiZTLm/crW5bbgASJiGCQ3mvHvMNv84cWFsxGTbgw8JK9O++femlN2ZqzY29AiFVlAjXJsZ/KGSchMn+hji11osrcTHrAAAQhF95brIe8ZfemOmU/90by//H996bnqvtut6QUi2Wo2ojNceqVLrWZCePZK9Ol7/38o3OrzMU7dQPgUel1Iz33y6PEkEwpAQ51rrffZwIrXUmsCyKtxVfElILpSuNLcVaklSkTN5dapjY7raQpAIjNFTwAAAbqqNSLfnmDy9Pzd6fbBvw4d0byy+9OfPNH175X/7v167PbFCbZCqW2/aS6xAEYX/tpSjhUSoGsq55OJT3Pv/U+M/fmesMwN2arb59feln78x2ndkPDil1tcGiRJh0lVK6FrELJwe+8tyJ771889/8h9e++5MPp+drSulyLcEI9dhLKj0AcZs4EYQgSlCXHohSrgEIPcuieFuXTiqllK5sLVebcsm45ELdurvt2GDCJEZgKOcCADZMDS+V4w9urtxZvH+WbAM+3LhbOXU0+6/+8BkAwF/9/FbvC4TSXCjbbq0IoBhRgvrLh6VyAiAYyDrmIYTwt54/Wa4lr19eCzTNLTdDl77y9t27y7ucLZFKV5tplAguFVi1J7O+/eufnPj6C+ebifjmD6/86bfevDVbLddThGC4Tj9YUum0o0WzEfO//dX0/oeMmyk3t9K2cKfVEacC6BYf4rS7dW4TSKmV1pWtxeITJiGEBMEr09srhzPzGQhGxbwLACjXNvi6aiNNuapuoZpjAz7cvFs9MhROjGSef/zoB7dKvYaQkkpI5VBsHhKCLIqjvgYNF8tNBGE+47SfCVz69IXhD26V6qtdjqVa8tmnxk8ezf3FSx/ubt2BVKraSJsJ51wCAJTSKZOuQyCEX3xm4l//40/96T/7tcCjl64vL5YijGDo0fZ7fZcqpTv9h0o9+cGrU1dvV/Y5RBYnLf/BpqSzni9KhNY69Kjv0JQJueXhG0IppXR5a/ZSyoRrk+Nj2cvbLIcTUjci5rtWPrQJhqWN9EO1yRiXW7HcuvkgpJqerx8dCgAAj54eJAj+9K073a9RWkhlWy0+UIwcCzdi3scY+kIpIhgWQrv9DEbooeMDpVpSracAAKX1ciU+eST3pU9OXJ4qXbq+m21Mq/YSZ8LoB5Uw6a9WKEEIRweDT1wY+fm7s9dnyq5NHGttzA/BiGDU6T8wruoRm11qcLGvRlTU5oOF1tlLiUAI+i4NPBqnkm85ICGlVkpXNjqwe5EwSQk6dzx/826VbSe6IKSqNVngUZviYs7dUD/UGmnK5Faq/br5UKolzZgfGQwAAMMF7+xE/gc/n+qKyUjDhw79kPHtRsy2fqV2HYvlOBc41qpIAAAIwUDWSbk0tRu1JkuYzGfsC5MD48Ph3/zy9i5+ezPhjKuUSS6kyfKmTLQrlAAABKMnzw1BCN68upTP2J2rqCAENsWd+oEL2Yj43HJD7G/xXJwKQiDF2LZIp98ct2InKHBpwsTWA3TbspdSJglGp8dzzZjPbadCWUhVj1jgUkLQYN4r9fjTSutqkzEhq83t64fZpSYA4MhQAABACD736JHp+dqH671qKZWQuq0fCEYZ36o3+bZovbtYKkfDA9763xn0HEowNHyYma9TjPKhY1H88KniW1cXdzHVWqolrkPaldsJk0oBz14362206D95bjhKeL5DiRk5bQuzVXtda50y2Yz57HJzn8+XKOGUIIyhTXHCZNtoiVLuu9SoiDjdBh+E3Kq9ZFrzLIpOj+e01lOz63ynP//R5el7e1NCqHrEA5dijIbybq8/zZhsxlxrUN2BvXR3sY4gGB3wzcPHzgxmAvuVd9ZlDZNUQAjW7CWCsoFVjxjv39yepXI8XPC6nvRs4likXE+U0rcX6hbFhYwNAHj8zFDM5C62Ma1Uk9Cjg3m32ki1BuV6QgnyXNr5GozQF54+FnpWPuN2Pg+B0Q+tS6cBMAReWIn4/p4vCRM2xRBCy0JS6vbvPkqE71CEoO+QhMmtay2ptFK6uoX4kpQqToTn0GzgjBT9qfm1QBDj8rs/uXll6p5TDIXSKZOeQxGEgzmvUk/V+q6gKBWNmLs2rm9hXk43H2YWGxMjGUpav3WM0VefO/HWlcWV6lrgshYxi+C2vYQRDD2rGfN0f+3dNlIuyvV0tOh3Pe86ZCjvLZSilMtbs9VMYJmug+Oj4VDefePKwm4FAJYrcca3hvJupc6U1qsdDt2zQIs591/+wdNf/czkumchsOhaPlgrbf4X1yHzKw9ajbMtxKmwKQEAOJRACNoto3EqfJdAABybmNISxuW//fbbVzcNBJnplxqASoOp+wUGuFDNRPguxQieO1aYnqu22Xh3qZFw2c79Gyil7yzWL99aAQAIoZiQrkMAAEMF16iLzg+PEt6M+eRott68f8hnHR+01neXGpNj2c4nn3/yqAb6lUuzbREbTW5R1NYPEELPIUKqfT7P2qg1mFR6ON+tH1yLFHPuQjlKmbw9XxsZ8I1BhRD61CNjV6fLuzUIrFRLcqGdzziVRqq1bnU42LT3lecmCsXcOjkhhLaFUt6yT5QG5XoyWgwKGefW7L6GXFMmzT21KQZgrQUiSkTgWhBCi2AAAJf62u3yT9688+GmffOt6nGHSqnuO8hMSBUl3HcIxvDsRL5cT9tu8d2lhlJ6pZq05VFKT81Vv/Gdd/7km2/UmqmQinNlrNPBnGvc684PjxORcjk26G/F+VnHhygR5Vo6OZbpfHIw537uqfFX3r7bturqEbPomn4AADg2kUrv9ZxDpfVKNY7T7vhvpZFKqUYGuvmAMSxknFojjVM+s1BvG4EAgOceGSvVktvzu9PGVKmnAxnXd2itmWoNSrXEttY6HDYHBMCxSHvEvNa60kgHc+5Q3tvEaN4LxKkw99SyMARrUwPjhPsuBQCYGnUh1K8+mFda15ubVSQopaVU+YyNMbpv+yQXKkqF71KC0Nlj+SgR7crt2aUGAKBST9rZg9nlxrd+eIUSzIR89d05LhSXylztobwnpO6yi6JUIAgGsq5ebfTbBOv4sFKNUy669AOE8DOPHvFd+vLbdw1HW3zoCBq6FpFKsz22lxiX//67771xuRUqlVK9/Pbdb3znnf/vxetRKoZ6/AcIYS60o0QuluNGLDoNqlNHc46FN8y+7wDlepoLbc8hzVgorauNNHAJxlvaZw4h8BzCuDRHl9agEfHQt8aK/lbyqbuIJJUmQGdTDCFIVmtPEi59lwAAjBXNuHz9gwWl9OaFFUprIXUhdDCCG8ZAOyGkjhPhOhRjWMg6BMG2fT673MyFdjMWtdXo0H/8wWUm1O9/+aEnzg7955/dasQMI2j4UMw6Qqn6ev0QJQJjVMg4EMDa/TTVOj4slmPG1eSRbNeLhgrel5459sv358yJVYu4vV4/uA7BCDX2uN9cKf3ezZWbsy3jMuXy2y9ee/vaYqmePPfoWLsjuRP5jAMheO/mCgDABJENCEGnjuWvz5R3lpgzxrGUZnKXrtSTXGj7DjVdWpVGmvHWBVU3gYmDpazFBzPGIvTokaFgdmlfQ0wxE8ZecmwMADBnH2NCSGUKEC2KAAA37laXKnHGt2tNtsntlkpLpQoZG2O0cr8SVyGUlMq1MIQQY5QL7XbY9M5C49hwiDGsNJjWutpIr0yVv/zpycmx7N954uit2dov35t3LGL8B8sirk067SWtdTPmBKGBrAMhuG/j5Do+LJUj3yWd1TUGEMKLJ4sXTxS/8+MPGZdRwl2bILR2v12b+A4pV5M9zahKpRsRm1+JzH9VrqdJKv/otx/5k3/6a//i957c8C35wMr41msfzCMIhgvrAjuPniwuluNSbScdhkKql96Yee2DBZOKjhKR9S3PNXzQ1QYLe67hvQAB8ByS8larvrl/gWuNFn0NwJ2FfVIRWutkzX8gEEKjHxIupdRtewkj+OaVRYuiT5wfbiZ8kwy6UlpKnQ0cuhV7SSqptTlhEYL50CnXUqW00np+pXl0KHBtUq4nWoNX35vzXXLqaBYA8PDJ4lDe/fEbdxxrzVvLeFanEhBS15pp6NNCxoEQ1rfJh3gw1211tL7Gtz/71PjN2epP37oTxbwreOJaxHNIqZ7c68CIU3FluvSACddGxITU8ytNE0h+98ay75Kjw8Embwl9KxfYU3O1fMbpUiDjI2GUiJ0Na2JcvfbBwmuX55sJX67GCMFMYPsOiZkUUtcaae+Zck9A6Dm0bS8JqaOUhx4dHfApQbs+6y3lcqkc9ZaXm81AdsteQsCULQGQMimVDlp8wLaF37+5cn5yYGTAZ1xtksNRWgupHBuHvtWbI+v9dqW0sdYQhCZynTARJ6LaZOPD4UDWXVyJUi5/dmn26FBoCjcpxV96ZqIeMccmrt2yVkLf6vzRcyErjTTj24WWfriP5bbGBy7USi0ZWn+IduLMsfyzj4x960dX51aaXXxwbOI51HB6w/dOzdX+419dvvNgw8BNMdxKNa7UU631pWtLwwWvEDqbvIVgVMy5GMKJ0UyXAWNRjBDcGUVNB/nMYqMe8eVKjBHMrgZzza9tG/oBtvSD4UOtmQIAA49mAisf2pv3A2xusWyIOwv1b/7wcq9nEqcCQtjig4UhBGY+b8qklCrwLAAAJcixSDPhT58fzoU253KT9iCltFSaYpQP7fv7D0IpvcoHBEYGvFqTNWK+XIkAAEeHgqG8O19qLpaiy1Olx04Ptm2Tzz017trEtUm7NCHjWfVoLcIrpDINuqZ/Y/MYAOjkQz1itSY7OhTe66WUoK997jTBsNpg/vqzlmAYeLTaTNt3Z6EU/fyd2XbuZna5MT1fe8Bh4OV6mvGtbGDPLjdTLt/5cPnMRB7jzVr8IISjRd+28ORoputPGEGC4M5iYkoDxuXt+VqtmS6VY4RgLrA9h1oEXbtdhhBmt2cv0ZRJM2V+qRxbBIWehRE6Ppb9cOaeeahKPfnnf/rjqW3OoF+qxK9fXrx8qzt10EwEgtDYSxbFELTyDykXUmnDB4sg1yaUwCfODudDO+Vqk6Jmox8oQYWsvbl+0FozIZVqVTwgCIcKfj1ijYiZ+TFjRb+Ycyv19PXLCymTT54bar+3mHO//OnJU0ez7cNueMCrR7zdncaFqjdZ1rdM1ri6dXuJEjQxEp4/Xtjk1YFn/fHvPObaJPDW3W8IYTawlspxPUq11suV+M++//6ffPMNE4LQWperSZLKt68uPYjDXaklucCeHMvemq1enS6nXJ49tpm0BsMFz7HI8Q34YArpdq4fmrG4s9BYKEeU4MC1fIdQgq7drnRVdG8OCKFFsVTKuM7L1dii2Fzek0eyMwuNe1UZlOrpUiXZ1oQVrXUj4o2ItUedaq2lUlrrKOamkgoAgBFqt/6kTAmpwtX4kmvj0+P5wKO5jMPF/fSD1AQj4wxsft+jWLQzvBDCwKUQgkbElyoxgqCQcfOhEyfil+/PT4yEwx1xcwjh179y/jc+vZbiHBsM6hFr/+65UClXvkshhBnfrkWp+a/nVpobZp/W+BB61te/cuH0sfzm1/ThU4P/4veeeOzMYNfzF04UA4/+z3/2qzevLv7/P75+Y6ZCMDQGktK6VEsgBFemyw8ysKRcT32XHh/NzC413ri84NnkxFh3KKwXE6OZZy6OXDxZ7HoeI0gI2ml8CUAAPYdcn6ksrDQLGRsh6DqEEnxtpowR3Ib/AABBEKz26C6XY0qQ8V+fuThCCfrx+i6/NsyElW01NAupqo2UEHR1umwOgmqDvfTGnfdvrtQjDlf1AwDAtYlJmZvd7I5NAQCUolPjuS89M0Ex8m2itL6fvaQoQfnQqUepuHeVuNKgFjHbwiZ+BQBwLIwxasR8sRwPFzxCUD60MUZXp8vPPjq2+f84MuDHiaitHiJcqJQLcz2zvmVKXKtN9r99642X3uwu3AY7mydw8WQx9Lrv96mjuX/01YsTo5l/++23r06Xf/dLZ48MBrdmqwCAJJW1iD18qsiFfBAH0UwuOjoU1CP++pXFM8dybk9NRC9Cz/qj336kmOv2ixCCGEEm5A5UltKaEHhsOJyeq82XItOHZFPs2nhuuWFKQbf+aSZTIVb1g+9SiyAAwGDO+7XHj/7y/fkNx1uZ3+K2+MC4WqnF5yYKEIJrt8tS6Xc+XPrzH135xnfeefnSXbSqHwAAjk2Mr5xySQnECAIAEITPP370c0+NY4wwRjbFm9lLSgupCUGFjC0V2CRFrbVuRMyx1nwAxyKORaoNtliKxooBACCfcTKBpYH+5MXRzf9H3yGEoLZ+MA0bhg+ZwDapupVKHCW8VN3AitvN/aLHRjL/6KsX//CrF//hVy585rEjxZx7824NABAlvNZgz1wYyYXOpetLO/584xiNDQa2he8s1h9wjTnG0BQO7cCAM6NOTx7NVpvpzHzdkA1CmAscIXXoUbKpV9MFgpFWwFRDLleSQui0reEvf3qy2kjfvLpBqZVhwrbaErmQpWpy8cTAsZHMS2/eqTfZL96bf/T04KcfGfvZ27Nd+iFZ9adtStqRCAihkQ0j6FhkEzZKraVUlKB8xtFab1JrrTWoNZlj4Q424kLGXq7EdxcbptQ69Ggh44wPhcdG7unfGphTqbI6EKxUS81eMgBALrDqTa6UXqklSSo3HN+/y/t2A8/69MNjF04MWBSPFn3T9BglIkrFaNG/MFl458PlHbsQlUYa+tZQ3suHttbgsTND93/PvYERcm0Sp/K+1Wa90BoopU8cyTkWaSZrfduZwEIQmlD31j/NcwghaG6lKaVaqca5joLwwbx78cTApWvLvYkkc35vq8GfCdVMRCHnXjwx8Oq7s7fna7cXap96ePTvf/b0P/vdx//OE0fbYRLXIq38A5MWxb3/DkLQsnDUUzvThu6IL5lf/D1fqXUj4nYnHyxSyDi352uVRnpk0Ddf93c/efyffO0RjO7zi7Uozvp2pd6y0BYrkeeQln7wbS5VymW5liRMbDgBY/f3TyMETTjMVBwIqaKUm8Huj58dWliJ7huNvhcq9STjWZSgE0eyk2OZ3oLWbQEj6NkkTjdLKt0LSmup9MiAZzRDcbVvOxfYEILOttWtoJBxTh7NvnVlIUrFSi3pbJCgBD376JHp+Q32vJizefMGf9OcJKQy7+VcpUyEHn34ZLHW5P/+e++ND4UPTQ7YFv7Uw6Nf/8qFdrDOdbD5fMaFRVEvuRGC9qbt1FIDpTTGKB+6GujN+ABAM+GuQ9rfTgnKBvbUfK0Z89HBAAAAITw1nrtwotsJ7IVF8WDeXanFRr/dvFPN+JZx5zKBrZSOEl6qJfeaCLOH+9iPDAZSgdnlRjMWpqf04skBodSHd3YyY0cpXY9ak4teeHbyf/yDTzygeBhB1yFxKnawMlhKpbSmBJ89licYtvVDNrAhhIVt8oESfG6icGepMbNQZ0x26gcI4VjRH8y5t2arXS5p1PIfNguoNxP+qw/mf/DzW8Y2SLlkXIWudeJoNuNbK9XkmYsjG7o6rk1M/iFhyqYY9BACI+g7NE7u2U5ttC5C0HMIwWhz/RCnwu0oB4YQZn07TgUTqrPKZiuwCCrm3FI1SVKhlL55t3p8tNW/kPUtpXW9ySr1lAu14ZqBLdVg7gxHhgKE4M07VSGV71DHIgNZZzDnXr9dfubCyHY/rREzIVWL6L6d8e37vmVzIAQ9m8yXoh3oh5RJjBEl6IlzQ9dnKm1NlQt3wgcAwNmJfMa3//LlmxDBLvXiu3S0GCyWY8ZlewoyWGXCJrOQb96t/uef33r3+jIT8vyJgdCzStWYEhT6lkXwC89OLqw07+WDGUtSa50ycS97KfStKBVMSEI2OFUNHzCEJjmzKR9Akgp/fWgkE1iBa8WpGNjmxUQI5gInSkScirnlRq3JTh3NmT9lQ0spvVCOq01mUxzts37IhXbGt0z5Vz5jOxaGEJ6dyN9eqO8g6l9pMAhgb1xrx8AYujaJE7ED/yFOBcGQYnR8NPOHv3WxHV3NhzaCwHThbQv50HlosnDp+hKCIBese7tt4XzGXqkmXRfNWEr38miVUt/4zjtzS42vfe70WDEwle3zpch3qZnu8cKzk7/36+fudT0di5hIq9lIvYG9BGHo0TgRRqpXLt2dmlun9tv6AQCQDzfng46Z6AoVZnwrcGkx626eb+0FhDD0qZAqTuXb15Y8hxxf7V/I+rbSeqkc1ZpsbNDfcG3fHvIBIzQxkrlxt7JYjgoZx7EJAODoUNiM+Q6GW9YaKYQg428jjrk5EISOTZLtDFBpI2aSYEQIwhgNF9b6tseHw69/5XxvruP+wiD4iYdGEIKmRr1Lzqxvt4d3rMmw6k9vaMHPr0RXpkpf/vTk808cHR8KTHPswkrkOdQk+7KB3ZnY6oJrEy6UGRDm2rQ3OmCaIuNUMK6kVH/2/fffuLKu+MC0sxk+5EKndu/eZa1BnMqudvOMbwUeHczfs3poE4SeBSGsR+yNKwsTI2Gb84FHAQCL5YhxOVYMNiy+2kM+AAAmj2Sm7tZKlTQX2iYEGfoWF2vj6Mzooa1EnMr1FEIYPrCZ1IZJDAupdrCErzWqqOfosih+4dkTG1ae3xenxnPjw2Hg0q5GIghhxreSVHTpBxNplVJvmFK8MlUCEFw8WbQtfHji2CEAABPzSURBVGQ4uHmnqrVeqkRZ3+os1L8XHJsoDRoxa63K7nEgEIKBS6OUMyHvLNbLtbTLPW3pB2j4YNeie5ZaxQk3eyc6n8x4Vi6wR+/N2E0QeDT06dRs7f2bpfMnBtqnFUbIc8hSOcYI5kM7SoXqufV7y4eTR7KNhM+tNNoWRehSIVWyemuvTpf+3bff3so6lWo96Zrk9eCwCBJS7cB/iFJuRhXtojAIwX/wdx/63S+d7TXWM74lZPd6zzgVFkFS6t5Zl1rr92+VToxljKqZGMmsVOOValyqJgO5LZnjro0Zly++NjOz0DhxJIt6IkwQQscmSgHG1Qe3SkrpruO2Uz+MDHgm5r7hd5VqKSWoSz9Qin/7s6e+9vnTW5G2C6Fn5QL7p2/dSYV85NQ6XR241kIpsgjKZxygQdwTndtj/TCW1RoACNvub+BZXKj2eJWZxfrUXG0rEdhKg/nu9vJc9wWlWEi9Az4Y/2FDP/JBcOHEwBc/MdH7fOhbrkMWy2ulSlrrhIlizt1wNnjCxK3Z6hOrvvL4UOjY5M2rS+VGukVf37VJI2IvvXnnC08fe+zMYC8fwGp7EBPy6nRZa9BVidPpP4wM+IzLDXsPlNavvjfru7TLSgQATIxkhgs70Q82xbnQubPUKIT2aHFdeMqzydxKM/CsfGgDCHvt9r3lQzHn+i7x7LUeI99Zpx/qEWdcbcWdqDTSfLjVprMtwpyvO/Cnk3vYS3uEjGcFLp1bWauWl1IzroYLnlw/69JgdqlZa7LHz7bylbnQHhnwXnztNhdqi3wo5tx8xvnN5058/unxe5l/ZrxAlAgzWKDLs1+1lwAAYHTAT7nccNzLpWtLL74289knj+4gKHcvQAgHso5N8aNnBrsOUN+ljYgXMo5pnOwNue7tHSUYHR0MPGeND5QihGDbFK43GeNyK0UHlUbae4Q8ICjZqf+w6k/vrjz3gu/SwKXzy2tT6xiXSumhgiel7g3WTc/XANBnV0szEYLnJgpXpsuUoC3+7CbHsv/rH3/mC584tokvRCkGAMws1GtNNj4cMLHuSnbaS/mMrZXubb2q1JM/+/77Z47lv/D0se3GkTbHQNZ1bNIbTQ59auTJBTYEIIq7f3h7fkfPnxgYynvBqt2PILQIauvWepOlW+RDfau6fuuwKNIApNtvgYgSTnCrym0fgBAs5tyljmVQCZdK65EBX6ruWflmvt34UKZzeufFkwOmAa2Q3VLEhmBUzHnWpp63aRm+MlUSUj16ZlBI1dlMIjvsJYJR4Fn19SVMXMi/+MmNlMk//p3HOmdT7ApOj+d+/ZMTj/dUYWd927VxLnACj0IIe/XDHubjDL72uTNmXYV5iBCkZG08Yz0y+uE+9pJSut5ku64fLIIsgppbGNvWhZRJx94gS7V3GMi6K9VZrbX50pRJpfRwwe21l+oRn11pnhpfVwl/4kjOtXHoUX8LFcFbhNkafGW6NJjzhvLu9FyNC9kOjnXGlxCCoUe79MPMQuP9Wyv/4DceygS7fFsBAIWM87tfPNv7fMa3AtfK+JaRc7/9ByNB5yQYBAElqH0L6zFnQt13Vr5J3ec3bQ3dASjFlOL7zuTpRcLE5mfnrqOYc+JUtEsyGZdK60LGARp02UtL5ahSS85OrOuUcm3yxWcmnnpoeBc5TClyHbJcSU6N5zyHCrluAJexl9qF4qbWuu2qaa1nlxtS6Yc27T/bdYS+5bs09C3HJhCCZo9hsuf6oQsQwnV8aDKzbUhITck9b1UjYkrp/PbzvpvDItgiqL79TV+m6nN3hdkcA1mXYHR3sXHueAEYe0npwKWUoi79sFiONAC902z/m8+dRrscjWjNXDs3kfdsIqVqD+Ay9fAQtuwlU8NifEWTlhVS3V1sDOVcZ2tT23YLwwVvKO8OZB2LIEpQb8nGfvMBIUgJapu8ZvF9M+ZdxTldqEdMKpXfdX+aIovi+05T7EXC5FayWruIYs61KL49XzN8SFmrrZmSdbtApVR3Fhq5wPZ7qvRyu61dLYo8h0IIzkzkS9WkSz8IqTBCLXsJgsGse+V2KWbCEKDWZLdmayeP5hxrXy/jhRMDZ47lzdhm36HNnpTIPkVI1r4PQsfCxvzVWiepGCp4UU/ytQv1iCsFdt1eMofEhn0hBibM35vY3397KXBpxqMzqwNKUia11r5D7fX6oRHz63cq544XttWgtzMQjDybjA+HoWf5LhEd+gEAwIXCuFX5jxAcyDn1iJuaK611rclWavH4cLi7CaX7AiPkWK09b75LDoB+gMC1acqlVEpIrTQYKfhRcp/dEY2YA6B33fEiGNkUb1gHb+7Z1FztrWtLQOs/eOF8p+Wd7rt+gBCOFP2Z1fFkhgO2hS2KOy9dtZGuVOIvPXNsd3Pn9xLp1NGc5xDXJq5NpVobaK01EFJhjNoWWuhZaSraLfwLpQgCONjTxLuf8FyrN7C57/4Dgp5Dmgk3c2cJhkMF9/Z8Pd20r78Rccci1m7fYwiha5MN+2irjfT//dtrV2+XtQYzC/Xf+cKZzkh8ysQ+8wEAMFr037uxopQ2CRxTht1lL924U/FdOlYM9if29fi5ocf1EITtXPXaTeRCkVX9ACF0LKJXa3KF1Feny0N5d7BnJPt+InDIfufjeoEgdG1qplxVGylCsJBxldZs07kb9YhlfLoX99h1yIZNj69dXrgyXf77nz39+19+SAMw3TEJXCm9//40AOBIMahHzEyYM23NAIAue+mX788fH83s2+8MQWhqchFCFCO2ttVFc6EwQu1CD7tjZriU6trt0rGRMNjVarTtwnfpAeADgqvj6HQ9Ymi1vLm36KCNKOFzy81g9zofOuHZpLelRin9/ZdvXjgx8IkLI+cnByyCbt5dGwvCuNQa2NZ+X7qhvGd64QEACZeOhQAAFsXtAuEo4Vdvl89M5MnWRovvIhAEuHOYlV6nH8DqNMRmzLXW9YgtluPjo9ndjXdtF75Le/PTfYi3ug5JmZRK1ZoMIWiiRhv6D1yo7/7kxouv327E/DefO7EX8rg26aq71Fr/9a+mYyaff+IowQhgMDmWuTlba+fC4lRACPZfP+SzttLArCdkqwrKsTAXSipNMPzZpVmbkjPj+f1MFBpACClGa/HW9fElAIBNUeBZ5Xoqlf7VBwuBa030TIjbZ/iuFadcKQ0heOmNmeGif/74QD/8acusXdK1BkMQZkMbQmgOOa0BE9JebVBcKkff/9nN5584+tknj44P78nlMy3U5nzVACily7Xk//nrq889OnZide7/2WOFd28uC6lMG26UctM7sRfybIKsbyPY4kPKW7O4XZvWIsaFwgi++PrtybFMcUc9NA8IBAEhqHOBoIkvtaNHFsWhZ5VqSSPiP3p16vyJgf460wCAwCFSAcYlRPAHr04/eW6oD3yAEFoUmeUxtSazLRy6lk1xI2JKg6Vy9Ne/mP7iM8dMme67N5ZHi/5v/drJXa9casOzqZAq5TJJxQ9enSrX0sVyJJX+zedOtM+2hyYLP3tndrkSG6miWMCO0V37BovijE/N7PiUSVPz4zpkpRoLoRpCXZkq/5OvPdoXI8SkWTvtJSEVwR3+A8UZ3yrVklcu3V2sxP/8mYkNa8j3E75LzSgDpTTj0uyX2m8jGABACNIACKVba7Qt7Dm0HnGl1Ps3Vv72tdvXbreM9UvXl0cKXnYP6lvacG2CIKw32VvXll56407K5cRo5n/47x7vrDE5M55LuTSbiEFr/xLcfz4AAAoZd00/UAwAcC3ChOJSLZQjqfT40PamUewWEIQEo3Z8SbfzD6vkNCVMy5X4L1+++eS5oYn7jRXbB/guVVonTNZjxrg0vRb7rR8AAKZtQEpVa6ahZ1kEeQ6pNVOl9Hu3liv19PZ8TUiFIHzvxvLXPnd6T8tIPYdgjKoN9te/mH7szOA//M0LGCGMYacJngns0LNml5tm50rcJ3sJADCQdSuN1KzqMxsPXBtzoYRQCytNAMDIjhosHxwQAjMcetXL0kIoi64tzYEQhp41PV+rNti//P2ndre6e2cIXKoVMIPJmJBmXU4/9ANGAAAhdb3JQ5daFvYcUmtyE5bOBvbMYr1cS27P16JEnDiS21NhzKKjVy7dXShFzz465liEEtRlckAIxwb92eVGK4wT98efBgAMZJ1qPeVcitUNgq5DuZBcqvmVyLHwnurSTQARbHv2AADdii+tu5KBb1GCnzw3NLnH93SLaOmHVNQj5ljE2J994INJnUqpqs009G2Kke/QRsQWSs1KPX3+iaOlarpciS99uOTauGvZ6a7DdQhG8Puv3HposnD++MC9XjY5ll2qxKZiuWUv7W/hjcFg3k2YrDbTNT7YmAvFhZpdbhwbyfTLKDfDStpbjgAAXK7LPwAAhvPu6fHc33v+VF8k7MWq/yDrTRb6VmsX8/7LsaofVK3JQp+a9dUJk+/eWLEofvqhIdcms8vNS9eWTxzJ9m413124NjFTvn/jU8c36Xc7MZap1lPT5x0lAiO4b82inShmXSZUpZ4K0eKDTYmUWgi5UIqODffNKIcQOBZmQprhPRoAqRRZb3YeGQr/+18/d35yXwu8N4HvUKVBwoSZ+4j6xgeCCEb1iKdcmtk4nkNTLt65vjRa9E+O58YG/TeuLFybKT96enCvQ+k2xZ5DHz8z1NUw0IWhvCekMnyIE25buC8ncTHncCHLtaS9cRljCCGoR7zaYOObrtLbU5gyTc5Va/jn6vDWztfYFE+MZvpiZ24I28IYwUbM6xEzg3dBX/xpgpFN0XIlUkqb+TGeQ6JETM3WXnhu0nfosZHMn//oSq3Jereu7DoghH/83z4WetbmBXCuQz2blqoxACBKu4fJ7RuKWZdxVaqv2UsYIQjhUjlOuRzvp36Ajk2YkKLVQq2l1PvWT7szQAgdG1fqaSPmgzm31dq6/3JQgmwLL5RipXWHfpDNRDxyahBCeHw0kw0sBMHE6P3X/zw4NlmZ14Zj4VxoL1cTIVSUcHe3+323CNehlKByLRFCGU5iDBECcytNzuXEaN/4gCBwLMK4MlvwtFkZcwCCSJvDtUilntab7NxEwdhL/dIPeKkSKQVW+UDMgnczenZ8KBgrBv44PTgHjEXxUMFbrsQxE1Ei99qruRdMF0tlnX6AEMLFUoTQ2pjxvgjmWJjxVf2ggVQK73sZ1Xbh2qTSSJoJL2T6aS9By8LT83Wttdk76DnUovj4WMZ0dYW+9VvPn/R3NPVxj2BRNJR3p+drcSKilA97/SlURhB4LinVU6V0e/chgnChFOVD5767QvYOEALbwlyqDn/6oNtLwPChniqt3dUfW3/irQ7FS5U1eylwqU3xwydb4U4I4cMni+3yoYMABGEubE1Rj/vnP0AEfYeWawmE0HirJnW4UI4K2b0qadmSYBASjEwbkHlGqY+CvWSTSiMFALRL5vpkL1mkUk8phkbpZwP7j3774aF+FKJtEWaosBAySkWcCG9/u+DbQBBkA/va7XLg0pb/hyCEoFJP+14eRzCCALSGpW8UXzqA8GxSrqUZ325nk/pwXyGENsV4/ZLmYyN9rv69LzK+RSkuVeNGzB27P7YchK3dIvaqb4Vwq5LKlKP1EZ1bUjXQUmly4O0lxyGNmFOC2qt++8Ngy8IYw70YRLV3CH0rF9jT8/WUSc/pTxDdbIdImNSro+/M7nQAwCbLHPYHBJsyzTV76eD706YHOPSomUUL+sUHm2KCUGZvWt72CIFL86F9a7YqlXL6FG9FEJh2QptitLr31qaIErTdvVK7DtIq02zVL0ml++jfbxEmThh4azsx+sQHC2OMMv5HiQ8YwWLOvT1fl0r3K94KAAhcSgkyBicAAGNkWyQf2v2iaBt4tQzHPDQte32V6P5o7eH1qNVfPjgUEwyzwUeJDxDCYs6LU6E1cPvnP1gU+w5tF4xgBG2KB7IupX0+jI23IORap+HB96d9m1gUBZ7drr7pk/9AMca7uRxxfzCYc9pVpf2SwSIo8GjbXiIYhh4dG/T70p/UCYIRRpBzqbUWQsLV4a0HGZ5LHYt0Lp3qj5K1LUzQR8xeAgAUc67JPLh9ircCACjFgWdZq/qBYPTkQ8MXTxZ7B1TuMzCGFkUJl0oDxhVC8ODnHzyHOBbuHN3SJz5Q4z98lOJLAIB8aJsYQB/5YBEUemv2EoRwcuxAJC4JRhbBSSq01imXCMGDH18qhM4jp4qjHaHq/tzXwKU2RTvbptpHYIyGBzwEYT/1A8Emnd/f4UW9wBhSihMmlNZMSLSaQT/IKObc33/hfNh3/TA84P/rP/p0+FGzlyCERwYDhPrJB88hx4ZDxyJWvx3oLhCMLIqSVGoFGJMIQXLg460Yo64h2X27r/3q9H1AfOaxIwNZt48nn0Xx1z5/pl/fvgkIam1C00Y/fBTspV4cdAYfNAxk3c88dqTfUhxEYOM/MKG0TplCEB78eo1eHPLhELsDgpHxH8yQRYQ+Av5DLz56Eh/iYMJMvWdcKa1NvPXQXjrExxcQQotgIZTWOuUCQXDw8w+9+OhJfIgDC4tiLpXSgDGFETr4+eleHPLhELsGzyHNmDMmGZdmI0S/Jdo2PnoSH+LA4thwqAG4MlVi3OQfDvXDIT7GODYSTo5m/uZXt1OhEEZ9n2i/Axzy4RC7Bkrwpx8Zu3G3cnWqRNcPq/yo4JAPh9hNPHxyYLTofzBVIvigzKXcFg75cIjdhG2Rzz99DEKwDwuw9wIfSaEPcZDx7CNj+dDe9WXh+wNodnwc4hC7Ba3129eXPJtsPjL9YOKQD4c4xBo+kkrtEIfYIxzy4RCHWMN/AXvQGdWy8p/9AAAAAElFTkSuQmCC;imageBorder=default;strokeWidth=0.25;" vertex="1" parent="1">
          <mxGeometry x="580" y="120" width="210" height="140" as="geometry" />
        </mxCell>
      </root>
    </mxGraphModel>
  </diagram>
</mxfile>
